<?xml version="1.0" encoding="utf-8"?>
<!-- Generator: Adobe Illustrator 25.1.0, SVG Export Plug-In . SVG Version: 6.00 Build 0)  -->
<svg version="1.1" id="Capa_1" xmlns="http://www.w3.org/2000/svg" xmlns:xlink="http://www.w3.org/1999/xlink" x="0px" y="0px"
	 viewBox="295 400 520 365" enable-background="new 0 0 1920 1080" xml:space="preserve" preserveAspectRatio="xMinYMin meet">
<g>
	<path fill="#603813" d="M607.99,519.85v177.47H328.17v-58.86c100.37-7.14,179.94-56.51,190.95-118.61H607.99z"/>
	<g>
		<path d="M606.49,519.85c0,5.89,0,11.78,0,17.68c0,14.15,0,28.29,0,42.44c0,17.11,0,34.21,0,51.32c0,14.71,0,29.42,0,44.13
			c0,4.88,0,9.76,0,14.64c0,2.27-0.25,4.7,0,6.96c0.01,0.1,0,0.21,0,0.31c0.5-0.5,1-1,1.5-1.5c-2.51,0-5.02,0-7.54,0
			c-6.77,0-13.55,0-20.32,0c-10.04,0-20.09,0-30.13,0c-12.25,0-24.51,0-36.76,0c-13.37,0-26.75,0-40.12,0c-13.59,0-27.18,0-40.78,0
			c-12.59,0-25.17,0-37.76,0c-10.67,0-21.35,0-32.02,0c-7.67,0-15.35,0-23.02,0c-3.6,0-7.29-0.24-10.88,0c-0.16,0.01-0.32,0-0.48,0
			c0.5,0.5,1,1,1.5,1.5c0-6.65,0-13.3,0-19.94c0-10.54,0-21.09,0-31.63c0-2.43,0-4.86,0-7.29c-0.5,0.5-1,1-1.5,1.5
			c19.01-1.37,37.92-4.24,56.42-8.84c16.98-4.22,33.62-9.91,49.5-17.26c14.31-6.63,27.99-14.66,40.44-24.36
			c11.07-8.63,21.13-18.64,29.23-30.13c7.34-10.42,12.98-22.14,15.89-34.58c0.35-1.5,0.66-3.02,0.93-4.54
			c-0.48,0.37-0.96,0.73-1.45,1.1c10,0,20,0,30,0c15.95,0,31.89,0,47.84,0c3.67,0,7.35,0,11.02,0c1.93,0,1.93-3,0-3c-10,0-20,0-30,0
			c-15.95,0-31.89,0-47.84,0c-3.67,0-7.35,0-11.02,0c-0.61,0-1.33,0.46-1.45,1.1c-2.2,12.26-7.05,23.85-13.77,34.32
			c-7.35,11.45-16.78,21.46-27.22,30.15c-11.8,9.83-24.97,17.97-38.73,24.77c-15.21,7.52-31.23,13.36-47.59,17.83
			c-18.03,4.92-36.5,8.16-55.11,9.87c-2.36,0.22-4.73,0.41-7.1,0.58c-0.81,0.06-1.5,0.64-1.5,1.5c0,6.65,0,13.3,0,19.94
			c0,10.54,0,21.09,0,31.63c0,2.43,0,4.86,0,7.29c0,0.81,0.69,1.5,1.5,1.5c2.51,0,5.02,0,7.54,0c6.77,0,13.55,0,20.32,0
			c10.04,0,20.09,0,30.13,0c12.25,0,24.51,0,36.76,0c13.37,0,26.75,0,40.12,0c13.59,0,27.18,0,40.78,0c12.59,0,25.17,0,37.76,0
			c10.67,0,21.35,0,32.02,0c7.67,0,15.35,0,23.02,0c3.63,0,7.26,0.07,10.88,0c0.16,0,0.32,0,0.48,0c0.81,0,1.5-0.69,1.5-1.5
			c0-5.89,0-11.78,0-17.68c0-14.15,0-28.29,0-42.44c0-17.11,0-34.21,0-51.32c0-14.71,0-29.42,0-44.13c0-7.19,0.23-14.42,0-21.6
			c0-0.1,0-0.2,0-0.31C609.49,517.92,606.49,517.92,606.49,519.85z"/>
	</g>
</g>
<g>
	<path fill="#4D4D4D" d="M406.37,637.76c-43.61,0-79.59-25.18-87.49-61.25c-4.64-21.17,0.85-43.22,15.44-62.11
		c14.61-18.92,36.6-32.39,61.91-37.93c7.91-1.73,15.94-2.63,23.88-2.68h0.06l0.06-0.01c0.59-0.15,1.18-0.28,1.78-0.41l287.79-63.03
		c5.3-1.16,10.7-1.75,16.04-1.75c28.75,0,52.45,16.54,57.64,40.21l10.72,48.96c3.03,13.84-0.59,28.32-10.21,40.77
		c-9.63,12.47-24.07,21.34-40.65,24.97l-287.05,62.87l-0.05,0.03c-7.95,3.83-16.45,6.76-25.27,8.69
		C422.82,636.86,414.55,637.76,406.37,637.76z"/>
	<path d="M725.83,409.08c28.51,0,52.01,16.37,57.14,39.82l10.72,48.96c6.23,28.46-16.41,57.68-50.47,65.14l-286.99,62.86l-0.11,0.03
		l-0.11,0.05c-7.92,3.82-16.38,6.73-25.16,8.65c-8.11,1.78-16.35,2.68-24.49,2.68c-43.38,0-79.15-25.02-87-60.85
		c-4.6-21.02,0.85-42.93,15.34-61.7c14.54-18.82,36.42-32.23,61.63-37.75c7.87-1.72,15.87-2.62,23.78-2.67h0.12l0.12-0.03
		c0.58-0.15,1.17-0.28,1.76-0.41l287.79-63.03C715.16,409.66,720.52,409.08,725.83,409.08L725.83,409.08 M725.82,408.08
		c-5.28,0-10.7,0.57-16.14,1.76l-287.79,63.03c-0.6,0.13-1.2,0.27-1.79,0.42c-7.85,0.05-15.89,0.92-23.98,2.69
		c-52.58,11.52-87.38,56.58-77.73,100.64c8.12,37.08,45.12,61.64,87.98,61.64c8.08,0,16.37-0.87,24.71-2.7
		c9.03-1.98,17.53-4.94,25.38-8.73l286.99-62.86c34.51-7.56,57.57-37.41,51.23-66.33l-10.72-48.96
		C778.61,424.32,754.06,408.08,725.82,408.08L725.82,408.08z"/>
</g>
<g>
	<path fill="#4D4D4D" d="M356.4,490.75c-3.58,0-6.72-1.64-8.18-4.29l-4.42-7.99c-0.94-1.7-1.11-3.68-0.47-5.59
		c0.79-2.38,2.74-4.42,5.34-5.59l23.56-10.58c1.49-0.67,3.14-1.02,4.77-1.02c3.58,0,6.72,1.64,8.18,4.29l4.42,7.99
		c0.94,1.7,1.11,3.68,0.47,5.59c-0.79,2.38-2.74,4.42-5.34,5.59l-23.56,10.58C359.69,490.4,358.04,490.75,356.4,490.75L356.4,490.75
		z"/>
	<g>
		<path d="M377,456.2c3.4,0,6.37,1.54,7.74,4.03l4.42,7.99c0.87,1.57,1.02,3.41,0.43,5.19c-0.75,2.25-2.6,4.18-5.07,5.29
			l-23.56,10.58c-1.43,0.64-3.01,0.98-4.57,0.98c-3.4,0-6.37-1.54-7.74-4.03l-4.42-7.99c-0.87-1.57-1.02-3.41-0.43-5.19
			c0.75-2.25,2.6-4.18,5.07-5.29l23.56-10.58C373.86,456.54,375.44,456.2,377,456.2 M377,455.2c-1.66,0-3.36,0.34-4.98,1.07
			l-23.56,10.58c-5.14,2.31-7.44,7.65-5.1,11.87l4.42,7.99c1.6,2.9,4.99,4.54,8.62,4.54c1.66,0,3.36-0.34,4.98-1.07l23.56-10.58
			c5.14-2.31,7.44-7.65,5.1-11.87l-4.42-7.99C384.01,456.84,380.63,455.2,377,455.2L377,455.2z"/>
	</g>
</g>
<g>
	<path fill="#4D4D4D" d="M747.96,559.93c-31.25,0-59.82-26.84-67.91-63.8c-9.21-42.06,11.39-82.43,45.92-90
		c3.75-0.82,7.59-1.24,11.42-1.24c31.25,0,59.82,26.83,67.91,63.8c4.47,20.39,2.14,40.99-6.55,58c-8.67,16.97-22.65,28.34-39.36,32
		C755.63,559.51,751.79,559.93,747.96,559.93L747.96,559.93z"/>
	<path d="M737.38,405.39c31.02,0,59.38,26.67,67.42,63.41c4.44,20.28,2.13,40.76-6.51,57.66c-8.61,16.84-22.47,28.11-39.02,31.74
		c-3.71,0.81-7.52,1.22-11.31,1.22c-31.02,0-59.38-26.67-67.42-63.41c-4.44-20.28-2.13-40.76,6.51-57.66
		c8.61-16.84,22.47-28.11,39.02-31.74C729.78,405.81,733.59,405.39,737.38,405.39 M737.38,404.39c-3.83,0-7.68,0.41-11.52,1.25
		c-34.86,7.63-55.58,48.19-46.3,90.59c8.26,37.72,37.5,64.19,68.4,64.19c3.83,0,7.68-0.41,11.52-1.25
		c34.86-7.63,55.58-48.19,46.3-90.59C797.52,430.87,768.28,404.39,737.38,404.39L737.38,404.39z"/>
</g>
<g>
	<path fill="#070707" d="M753.78,553.41c-24.54,0-48.82-26.39-56.48-61.37c-8.59-39.23,6.04-75.88,32.62-81.7
		c2.39-0.52,4.84-0.79,7.29-0.79c24.54,0,48.82,26.38,56.48,61.37c4.17,19.04,3.05,38.03-3.14,53.48
		c-6.17,15.38-16.64,25.41-29.47,28.22C758.69,553.14,756.23,553.41,753.78,553.41L753.78,553.41z"/>
	<path d="M737.2,410.05c11.69,0,23.77,6.07,34.02,17.08c10.43,11.21,18.23,26.79,21.97,43.9c4.15,18.94,3.04,37.83-3.12,53.19
		c-6.11,15.23-16.45,25.14-29.12,27.92c-2.35,0.51-4.77,0.78-7.19,0.78c-11.69,0-23.77-6.07-34.02-17.08
		c-10.43-11.21-18.23-26.79-21.97-43.9c-4.15-18.94-3.04-37.83,3.12-53.19c6.11-15.23,16.45-25.14,29.12-27.92
		C732.37,410.31,734.78,410.05,737.2,410.05 M737.2,409.05c-2.47,0-4.94,0.26-7.4,0.8c-26.89,5.89-41.66,42.73-33,82.29
		c7.87,35.95,32.39,61.77,56.97,61.77c2.47,0,4.94-0.26,7.4-0.8c26.89-5.89,41.66-42.73,33-82.29
		C786.3,434.87,761.79,409.05,737.2,409.05L737.2,409.05z"/>
</g>
<g>
	<path fill="#603813" d="M352.59,466.21c-9.85-15.4-29.51-25.06-51.51-25.29l-2.6-11.66c2.71-0.33,5.5-0.51,8.29-0.54
		c0.32,0,0.64-0.01,0.96-0.01c25.35,0,47.42,12.74,55.1,31.74L352.59,466.21z"/>
	<path d="M307.73,429.2c12.72,0,24.66,3.1,34.54,8.95c9.35,5.54,16.22,13.16,19.93,22.07l-9.44,5.31
		c-9.96-15.22-29.46-24.78-51.27-25.12l-2.4-10.73c2.52-0.28,5.1-0.44,7.69-0.47C307.09,429.21,307.41,429.2,307.73,429.2
		L307.73,429.2 M307.73,428.2c-0.32,0-0.64,0-0.97,0.01c-3.01,0.04-5.98,0.24-8.89,0.61l2.81,12.59
		c23.02,0.13,42.28,10.31,51.74,25.47l11.03-6.21C356,441.63,334.34,428.2,307.73,428.2L307.73,428.2z"/>
</g>
<g>
	<path fill="#603813" d="M622.19,530.5v177.47H342.37v-58.86c100.37-7.14,179.94-56.51,190.95-118.61H622.19z"/>
	<g>
		<path d="M620.69,530.5c0,5.89,0,11.78,0,17.68c0,14.15,0,28.29,0,42.44c0,17.11,0,34.21,0,51.32c0,14.71,0,29.42,0,44.13
			c0,4.88,0,9.76,0,14.64c0,2.27-0.25,4.7,0,6.96c0.01,0.1,0,0.21,0,0.31c0.5-0.5,1-1,1.5-1.5c-2.51,0-5.02,0-7.54,0
			c-6.77,0-13.55,0-20.32,0c-10.04,0-20.09,0-30.13,0c-12.25,0-24.51,0-36.76,0c-13.37,0-26.75,0-40.12,0c-13.59,0-27.18,0-40.78,0
			c-12.59,0-25.17,0-37.76,0c-10.67,0-21.35,0-32.02,0c-7.67,0-15.35,0-23.02,0c-3.6,0-7.29-0.24-10.88,0c-0.16,0.01-0.32,0-0.48,0
			c0.5,0.5,1,1,1.5,1.5c0-6.65,0-13.3,0-19.94c0-10.54,0-21.09,0-31.63c0-2.43,0-4.86,0-7.29c-0.5,0.5-1,1-1.5,1.5
			c19.01-1.37,37.92-4.24,56.42-8.84c16.98-4.22,33.62-9.91,49.5-17.26c14.31-6.63,27.99-14.66,40.44-24.36
			c11.07-8.63,21.13-18.64,29.23-30.13c7.34-10.42,12.98-22.14,15.89-34.58c0.35-1.5,0.66-3.02,0.93-4.54
			c-0.48,0.37-0.96,0.73-1.45,1.1c10,0,20,0,30,0c15.95,0,31.89,0,47.84,0c3.67,0,7.35,0,11.02,0c1.93,0,1.93-3,0-3c-10,0-20,0-30,0
			c-15.95,0-31.89,0-47.84,0c-3.67,0-7.35,0-11.02,0c-0.61,0-1.33,0.46-1.45,1.1c-2.2,12.26-7.05,23.85-13.77,34.32
			c-7.35,11.45-16.78,21.46-27.22,30.15c-11.8,9.83-24.97,17.97-38.73,24.77c-15.21,7.52-31.23,13.36-47.59,17.83
			c-18.03,4.92-36.5,8.16-55.11,9.87c-2.36,0.22-4.73,0.41-7.1,0.58c-0.81,0.06-1.5,0.64-1.5,1.5c0,6.65,0,13.3,0,19.94
			c0,10.54,0,21.09,0,31.63c0,2.43,0,4.86,0,7.29c0,0.81,0.69,1.5,1.5,1.5c2.51,0,5.02,0,7.54,0c6.77,0,13.55,0,20.32,0
			c10.04,0,20.09,0,30.13,0c12.25,0,24.51,0,36.76,0c13.37,0,26.75,0,40.12,0c13.59,0,27.18,0,40.78,0c12.59,0,25.17,0,37.76,0
			c10.67,0,21.35,0,32.02,0c7.67,0,15.35,0,23.02,0c3.63,0,7.26,0.07,10.88,0c0.16,0,0.32,0,0.48,0c0.81,0,1.5-0.69,1.5-1.5
			c0-5.89,0-11.78,0-17.68c0-14.15,0-28.29,0-42.44c0-17.11,0-34.21,0-51.32c0-14.71,0-29.42,0-44.13c0-7.19,0.23-14.42,0-21.6
			c0-0.1,0-0.2,0-0.31C623.69,528.57,620.69,528.57,620.69,530.5z"/>
	</g>
</g>
<g>
	<circle fill="#603813" cx="607.69" cy="684.01" r="75.43"/>
	<g>
		<path d="M530.77,684.01c0.04,15.92,4.98,31.65,14.26,44.61c9,12.57,21.65,22.27,36.16,27.62c15.15,5.59,32.08,6.19,47.61,1.77
			c14.9-4.24,28.4-13.09,38.24-25.05c10.03-12.19,16.13-27.25,17.35-43c1.24-15.92-2.58-32.1-10.86-45.76
			c-8-13.19-19.99-23.89-34.05-30.25c-14.76-6.67-31.43-8.52-47.3-5.29c-15.19,3.09-29.3,10.94-40.02,22.13
			c-10.84,11.32-18.12,25.9-20.47,41.4C531.09,676.11,530.78,680.05,530.77,684.01c0,1.93,3,1.93,3,0
			c0.04-15.32,4.79-30.33,13.66-42.83c8.59-12.11,20.92-21.54,34.87-26.62c14.6-5.32,30.75-5.9,45.7-1.65
			c14.39,4.09,27.29,12.63,36.82,24.16c9.59,11.6,15.46,26.17,16.59,41.18c1.16,15.38-2.46,30.88-10.47,44.07
			c-7.69,12.68-19.18,22.87-32.67,29.03c-14.05,6.43-30.16,8.21-45.29,5.13c-14.73-3-28.31-10.51-38.7-21.36
			c-10.43-10.88-17.32-24.85-19.65-39.74c-0.59-3.76-0.85-7.56-0.86-11.36C533.76,682.08,530.76,682.08,530.77,684.01z"/>
	</g>
</g>
<g>
	<circle fill="#603813" cx="369.29" cy="708.27" r="51.17"/>
	<g>
		<path d="M316.62,708.27c0.04,10.86,3.38,21.59,9.69,30.45c6.18,8.66,14.85,15.32,24.83,19.01c20.66,7.64,44.69,1.13,58.7-15.84
			c6.89-8.35,11.08-18.62,11.95-29.41c0.88-10.89-1.71-21.99-7.36-31.35c-5.45-9.03-13.64-16.4-23.25-20.76
			c-10.07-4.57-21.41-5.88-32.27-3.73c-21.24,4.2-38.28,21.88-41.62,43.28C316.85,702.68,316.63,705.47,316.62,708.27
			c-0.01,1.93,2.99,1.93,3,0c0.07-20.61,13.18-39.63,32.63-46.68c9.78-3.54,20.56-3.95,30.57-1.13c9.74,2.75,18.46,8.52,24.9,16.32
			c13.22,16.01,14.83,39.38,4.13,57.13c-10.73,17.8-32.08,27.22-52.47,23.05c-20.18-4.13-36.02-20.78-39.2-41.12
			c-0.39-2.5-0.55-5.03-0.56-7.56C319.61,706.34,316.61,706.33,316.62,708.27z"/>
	</g>
</g>
<g>
	<path fill="#020202" d="M607.69,715.75c-17.5,0-31.74-14.24-31.74-31.74s14.24-31.74,31.74-31.74s31.74,14.24,31.74,31.74
		S625.2,715.75,607.69,715.75z"/>
	<path d="M607.69,652.77c17.23,0,31.24,14.01,31.24,31.24s-14.01,31.24-31.24,31.24s-31.24-14.01-31.24-31.24
		C576.45,666.79,590.47,652.77,607.69,652.77 M607.69,651.77c-17.81,0-32.24,14.43-32.24,32.24s14.43,32.24,32.24,32.24
		s32.24-14.43,32.24-32.24S625.5,651.77,607.69,651.77L607.69,651.77z"/>
</g>
<g>
	<path fill="#020202" d="M369.29,728.77c-12.56,0-22.78-9.33-22.78-20.8s10.22-20.8,22.78-20.8s22.78,9.33,22.78,20.8
		S381.85,728.77,369.29,728.77z"/>
	<g>
		<path d="M369.29,687.67c12.29,0,22.28,9.11,22.28,20.3s-10,20.3-22.28,20.3s-22.28-9.11-22.28-20.3S357,687.67,369.29,687.67
			 M369.29,686.67c-12.86,0-23.28,9.53-23.28,21.3c0,11.76,10.42,21.3,23.28,21.3s23.28-9.53,23.28-21.3
			C392.57,696.21,382.15,686.67,369.29,686.67L369.29,686.67z"/>
	</g>
</g>
</svg>
