<svg preserveAspectRatio="xMinYMin meet" xmlns="http://www.w3.org/2000/svg" viewBox="0 0 500 500">

 <g>
  <title>Layer 1</title>
  <ellipse stroke-width="5" ry="200" rx="200" id="svg_6" cy="249.5" cx="250" stroke="#000" fill="none"/>
  <ellipse ry="175" rx="175" id="svg_7" cy="250" cx="250" stroke="#000" fill="none"/>
  <g transform="rotate(-90 75 250)" stroke="null" id="svg_36">
   <path stroke="#000" id="svg_33" d="m76.00004,301l0,-102l-25.00004,102l25.00004,0z" fill="#efd6ac"/>
   <path stroke="#000" id="svg_34" d="m75.99998,301l0,-102l22.99999,102l-22.99999,0z" fill="#000000"/>
  </g>
  <g transform="rotate(135 374 375)" id="svg_39">
   <path stroke="#000" id="svg_37" d="m375.00005,425l0,-100l-25.00004,100l25.00004,0z" fill="#efd6ac"/>
   <path stroke="#000" id="svg_38" d="m374.99999,425l0,-100l22.99999,100l-22.99999,0z" fill="#000000"/>
  </g>
  <g transform="rotate(90 424 250)" id="svg_42">
   <path stroke="#000" id="svg_40" d="m425.00005,300l0,-100l-25.00004,100l25.00004,0z" fill="#efd6ac"/>
   <path stroke="#000" id="svg_41" d="m424.99999,300l0,-100l22.99999,100l-22.99999,0z" fill="#000000"/>
  </g>
  <g transform="rotate(180 249 424.5)" stroke="null" id="svg_45">
   <path stroke="#000" id="svg_43" d="m250.00001,475l0,-101l-25.00004,101l25.00004,0z" fill="#efd6ac"/>
   <path stroke="#000" id="svg_44" d="m249.99995,475l0,-101l22.99999,101l-22.99999,0z" fill="#000000"/>
  </g>
  <g stroke="null" id="svg_48">
   <path stroke="#000" id="svg_46" d="m250.00005,126l0,-101l-25.00004,101l25.00004,0z" fill="#efd6ac"/>
   <path stroke="#000" id="svg_47" d="m249.99999,126l0,-101l22.99999,101l-22.99999,0z" fill="#000000"/>
  </g>
  <g transform="rotate(45 374 125)" id="svg_51">
   <path stroke="#000" id="svg_49" d="m375.00005,175l0,-100l-25.00004,100l25.00004,0z" fill="#efd6ac"/>
   <path stroke="#000" id="svg_50" d="m374.99999,175l0,-100l22.99999,100l-22.99999,0z" fill="#000000"/>
  </g>
  <g transform="rotate(-45 124 125)" id="svg_54">
   <path stroke="#000" id="svg_52" d="m125.00004,175l0,-100l-25.00004,100l25.00004,0z" fill="#efd6ac"/>
   <path stroke="#000" id="svg_53" d="m124.99998,175l0,-100l22.99999,100l-22.99999,0z" fill="#000000"/>
  </g>
  <g transform="rotate(-135 124 375)" id="svg_57">
   <path stroke="#000" id="svg_55" d="m125.00004,425l0,-100l-25.00004,100l25.00004,0z" fill="#efd6ac"/>
   <path stroke="#000" id="svg_56" d="m124.99998,425l0,-100l22.99999,100l-22.99999,0z" fill="#000000"/>
  </g>
  <rect stroke-width="0" id="svg_9" height="250" width="250" y="125" x="125" stroke="#000" fill="#efd6ac"/>
  <text transform="matrix(1 0 0 1 0 0)" xml:space="preserve" text-anchor="start" font-family="Noto Sans JP" font-size="24" stroke-width="0" id="svg_58" y="23" x="241.5" stroke="#000" fill="#000000">N</text>
  <text transform="matrix(1 0 0 1 0 0)" xml:space="preserve" text-anchor="start" font-family="Noto Sans JP" font-size="24" stroke-width="0" id="svg_59" y="258" x="479" stroke="#000" fill="#000000">E</text>
  <text transform="matrix(1 0 0 1 0 0)" xml:space="preserve" text-anchor="start" font-family="Noto Sans JP" font-size="24" stroke-width="0" id="svg_60" y="493" x="242" stroke="#000" fill="#000000">S</text>
  <text transform="matrix(1 0 0 1 0 0)" xml:space="preserve" text-anchor="start" font-family="Noto Sans JP" font-size="24" stroke-width="0" id="svg_61" y="258" x="3" stroke="#000" fill="#000000">W</text>
 </g>
</svg>