<?xml version="1.0" encoding="utf-8"?>
<!-- Generator: Adobe Illustrator 25.1.0, SVG Export Plug-In . SVG Version: 6.00 Build 0)  -->
<svg version="1.1" id="Capa_1" xmlns="http://www.w3.org/2000/svg" xmlns:xlink="http://www.w3.org/1999/xlink" x="0px" y="0px"
	 viewBox="105 25 865 555" enable-background="new 0 0 1920 1080" xml:space="preserve">
<g>
	<path fill="#020000" d="M959.6,516.42c-88.94-55.13-162.68-67.32-213.98-68.12c-179.96-2.76-265.75,132.21-447.72,124.37
		c-78.51-3.38-141.61-31.92-182.4-55.27c19.66-28.46,75.03-116.46,70-239.9c-4.25-104.37-49.4-178.11-70-207.82
		c19.89,14.7,52.65,35.81,96.73,49.74c160.5,50.74,276.61-55.03,483.65-74.62c58.16-5.5,141.93-5.94,246.24,19.92l-81.55,59.23
		l50.99,22.72l-106.78,53.55l77.94,56.84c-34.2,19.6-66.38,23.79-77.87,24.93c18.91,14.84,61.22,44.14,123.01,55.24
		c-35.36,21.17-69.16,25.59-81.01,26.76c16.45,12.9,50.59,36.75,99.85,50.05c0.13,1.29,0.26,2.59,0.39,3.88
		c-8.48-0.27-17.97-0.42-28.59-0.42c-51.99,0.01-56.6,3.65-57,6c-1.16,6.88,32.58,10.52,62,37
		C946.04,480.79,955.59,505.07,959.6,516.42z"/>
</g>
</svg>