<?xml version="1.0" encoding="utf-8"?>
<!-- Generator: Adobe Illustrator 25.1.0, SVG Export Plug-In . SVG Version: 6.00 Build 0)  -->
<svg preserveAspectRatio="xMinYMin meet" version="1.1" id="Capa_1" xmlns="http://www.w3.org/2000/svg" xmlns:xlink="http://www.w3.org/1999/xlink" x="0px" y="0px"
	 viewBox="165 65 255 260" style="enable-background:new 0 0 595.28 841.89;" xml:space="preserve">
<style type="text/css">
	.st0{fill:#CA9E67;stroke:#000000;stroke-miterlimit:10;}
	.st1{fill:#683C11;stroke:#000000;stroke-miterlimit:10;}
	.st2{fill:#12672F;stroke:#000000;stroke-miterlimit:10;}
	.st3{stroke:#000000;stroke-miterlimit:10;}
	.st4{fill:#B17F4A;stroke:#000000;stroke-miterlimit:10;}
	.st5{fill:#FFFFFF;stroke:#000000;stroke-miterlimit:10;}
	.st6{fill:#936037;stroke:#000000;stroke-miterlimit:10;}
	.st7{fill:#9D9D9C;stroke:#000000;stroke-miterlimit:10;}
	.st8{fill:#FCEA10;stroke:#000000;stroke-miterlimit:10;}
</style>
<path class="st0" d="M403.54,319.64c0,0.9-0.02,1.8-0.05,2.69h-229.8c-0.04-0.89-0.05-1.79-0.05-2.69
	c0-49.07,51.47-88.85,114.95-88.85S403.54,270.57,403.54,319.64z"/>
<path class="st1" d="M320.18,274.24l5.88,2.14c2.04,0.74,4.19-0.8,4.77-3.43l26.79-121.97c0.58-2.63-0.62-5.39-2.66-6.14l-5.88-2.14
	c-2.04-0.74-4.19,0.8-4.77,3.43L317.51,268.1C316.93,270.73,318.13,273.5,320.18,274.24z"/>
<polygon class="st2" points="368.35,155.58 368.45,155.45 368.51,155.53 "/>
<path class="st2" d="M402.37,198.27l-1.58-1.3l0.01-10.21l-10.11-0.02l0.02-11.19l-14.4-0.03l0.01-11.75l-15.98-0.03l0.01-10.1
	l-12.51-0.03l-1.66-1.36c7.06-14.28,25.35-15.56,40.87-2.85C402.57,162.1,409.43,183.98,402.37,198.27z"/>
<path class="st2" d="M416.96,146.19l-1.87,0.09l-4.5-8.41l-8.33,7.38l-4.93-9.22l-11.86,10.51l-5.18-9.68l-13.16,11.67l-4.45-8.32
	l-10.31,9.13l-1.97,0.1c-0.5-16.92,13.99-31.36,32.37-32.26C401.16,116.28,416.47,129.27,416.96,146.19z"/>
<path class="st2" d="M401.22,98.59l-1.5,1.46l-7.42-3.59l-3.55,12.19l-8.14-3.93l-5.06,17.36l-8.54-4.13l-5.61,19.26l-7.34-3.55
	l-4.4,15.08l-1.57,1.53c-7.92-13.51-2.45-36.03,12.22-50.3C374.98,85.7,393.3,85.08,401.22,98.59z"/>
<path class="st2" d="M351.55,151.05l-1.58-1.3l0.01-10.21l-10.11-0.02l0.02-11.19l-14.4-0.03l0.01-11.75l-15.98-0.03l0.01-10.1
	l-12.51-0.03l-1.66-1.36c7.06-14.28,25.35-15.56,40.87-2.85C351.75,114.88,358.6,136.76,351.55,151.05z"/>
<polygon class="st2" points="368.51,155.53 368.35,155.58 368.45,155.45 "/>
<polygon class="st2" points="299.19,160.55 299.29,160.42 299.35,160.5 "/>
<path class="st2" d="M353.6,152.1l-1.84,0.49l-5.51-7.34l-7.27,9.05l-6.04-8.05l-10.35,12.89l-6.34-8.45l-11.49,14.3l-5.45-7.26
	l-9,11.2l-1.93,0.51c-2.66-16.58,9.79-33.9,27.8-38.68C334.19,125.96,350.94,135.52,353.6,152.1z"/>
<path class="st1" d="M265.69,275.46l5.74-2.7c1.99-0.94,3.03-3.81,2.3-6.38L239.9,147.35c-0.73-2.57-2.96-3.9-4.95-2.96l-5.74,2.7
	c-1.99,0.94-3.03,3.81-2.3,6.38l33.83,119.03C261.47,275.07,263.7,276.4,265.69,275.46z"/>
<path class="st2" d="M297.69,151.86l-1.87,0.14l-4.64-8.28l-8.2,7.61l-5.08-9.08l-11.68,10.84l-5.34-9.53l-12.96,12.03l-4.59-8.19
	l-10.15,9.42l-1.97,0.15c-0.79-16.9,13.46-31.75,31.81-33.16C281.38,122.41,296.9,134.96,297.69,151.86z"/>
<path class="st2" d="M285.8,98.65l-1.48,1.49l-7.47-3.42l-3.38,12.26l-8.19-3.75l-4.82,17.47l-8.6-3.93l-5.35,19.39l-7.39-3.38
	l-4.19,15.18l-1.55,1.56c-8.11-13.33-2.94-35.97,11.53-50.57C259.38,86.36,277.69,85.32,285.8,98.65z"/>
<path class="st2" d="M251.37,71.98l-0.55,2.31l-7.65,2.7l2.67,12.55l-8.38,2.96l3.8,17.88l-8.8,3.11l4.22,19.84l-7.56,2.67
	l3.31,15.54l-0.58,2.42c-12.57-4.96-18.39-27.34-13-49.97C224.25,81.35,238.8,67.02,251.37,71.98z"/>
<path class="st2" d="M235.01,151.98l-1.87,0.14l-4.64-8.28l-8.2,7.61l-5.08-9.08l-11.68,10.84l-5.34-9.53l-12.96,12.03l-4.59-8.19
	l-10.15,9.42l-1.97,0.15c-0.79-16.9,13.46-31.75,31.81-33.16C218.71,122.53,234.23,135.08,235.01,151.98z"/>
<path class="st2" d="M237.16,151.28l-1.27,1.78l-7.81-1.79l-1.77,12.81l-8.56-1.96l-2.52,18.26l-8.99-2.05l-2.8,20.26l-7.72-1.77
	l-2.19,15.86l-1.33,1.87c-9.7-11.43-7.51-34.85,4.9-52.32S227.46,139.86,237.16,151.28z"/>
<path class="st3" d="M361.19,303.18c-6.35-0.14-11.41-6.28-11.29-13.7c0.1-6.53,4.18-11.89,9.48-12.99l0,0l1.14-2l3.1,0.23
	l0.87,2.05c4.94,1.6,8.53,6.95,8.43,13.22C372.79,297.41,367.54,303.32,361.19,303.18z"/>
<path class="st4" d="M362.32,273.87c-0.01,0.25-0.03,0.49-0.06,0.73l-0.99-0.04c-0.41-2.75-2.61-4.66-5.01-4.31
	c-0.35,0.05-0.69,0.15-1.01,0.29l0.03-1.21c0.76-0.6,1.68-0.94,2.67-0.9C360.46,268.52,362.41,270.96,362.32,273.87z"/>
<path class="st5" d="M362.53,281.84c0.99-1.28,2.49-1.97,4.06-1.68c2.46,0.46,4.14,3.16,3.74,6.03c-0.32,2.36-1.93,4.1-3.85,4.4
	c0.57-0.73,0.96-1.65,1.1-2.7c0.39-2.88-1.28-5.58-3.74-6.03C363.39,281.77,362.95,281.77,362.53,281.84z"/>
<path class="st3" d="M307.06,302.54c-4.39-0.1-7.88-4.33-7.79-9.46c0.07-4.51,2.88-8.21,6.54-8.97l0,0l0.79-1.38l2.14,0.16l0.6,1.42
	c3.41,1.11,5.89,4.8,5.82,9.13C315.07,298.56,311.45,302.64,307.06,302.54z"/>
<path class="st4" d="M307.85,282.3c0,0.17-0.02,0.34-0.04,0.5l-0.68-0.03c-0.29-1.9-1.8-3.22-3.46-2.98
	c-0.24,0.04-0.47,0.1-0.69,0.2l0.02-0.84c0.53-0.42,1.16-0.65,1.84-0.62C306.56,278.61,307.9,280.29,307.85,282.3z"/>
<path class="st5" d="M307.99,287.8c0.68-0.88,1.72-1.36,2.8-1.16c1.7,0.32,2.86,2.18,2.59,4.17c-0.22,1.63-1.33,2.83-2.66,3.04
	c0.39-0.5,0.66-1.14,0.76-1.86c0.27-1.99-0.89-3.85-2.59-4.17C308.58,287.76,308.28,287.75,307.99,287.8z"/>
<path class="st3" d="M327.32,291.25c-4.59-0.1-8.24-4.53-8.15-9.9c0.08-4.72,3.02-8.59,6.84-9.38l0,0l0.82-1.45l2.24,0.17l0.63,1.48
	c3.57,1.16,6.16,5.02,6.09,9.55C335.69,287.08,331.9,291.35,327.32,291.25z"/>
<path class="st4" d="M328.13,270.08c-0.01,0.18-0.02,0.35-0.05,0.52l-0.71-0.03c-0.3-1.99-1.88-3.37-3.62-3.11
	c-0.25,0.04-0.5,0.11-0.73,0.21l0.02-0.87c0.55-0.43,1.22-0.68,1.93-0.65C326.79,266.22,328.19,267.98,328.13,270.08z"/>
<path class="st5" d="M328.28,275.83c0.71-0.93,1.8-1.42,2.93-1.21c1.78,0.33,2.99,2.28,2.7,4.36c-0.23,1.7-1.39,2.96-2.78,3.18
	c0.41-0.53,0.69-1.2,0.8-1.95c0.28-2.08-0.93-4.03-2.7-4.36C328.91,275.79,328.59,275.78,328.28,275.83z"/>
<path class="st6" d="M278.81,269.96v32.93h-56.81v-32.93c0-0.42,0.02-0.84,0.06-1.25h56.68
	C278.79,269.13,278.81,269.54,278.81,269.96z"/>
<path class="st7" d="M221.99,268.71h0.06c-0.04,0.41-0.06,0.83-0.06,1.25V268.71z"/>
<path class="st6" d="M278.74,268.71h-56.68c0.48-4.76,3.63-9.03,8.49-12.17c1.58-1.02,3.33-1.91,5.23-2.67
	c4.27-1.7,9.27-2.67,14.62-2.67c5.75,0,11.1,1.13,15.57,3.07c1.92,0.83,3.67,1.81,5.23,2.92
	C275.52,260.25,278.3,264.27,278.74,268.71z"/>
<path class="st8" d="M246.24,263.16v11.12h10.93v-11.12H246.24z M255.04,272.6h-6.42v-7.5h6.42V272.6z"/>
<path class="st3" d="M235.78,253.88v14.28h-5.23v-11.61C232.13,255.53,233.88,254.63,235.78,253.88z"/>
<rect x="230.55" y="268.71" class="st3" width="5.23" height="34.18"/>
<path class="st3" d="M271.2,257.19v10.97h-5.23v-13.88C267.89,255.11,269.64,256.08,271.2,257.19z"/>
<rect x="265.97" y="268.71" class="st3" width="5.23" height="34.18"/>
</svg>