<?xml version="1.0" encoding="utf-8"?>
<!-- Generator: Adobe Illustrator 25.1.0, SVG Export Plug-In . SVG Version: 6.00 Build 0)  -->
<svg preserveAspectRatio="xMinYMin meet" version="1.1" id="Capa_1" xmlns="http://www.w3.org/2000/svg" xmlns:xlink="http://www.w3.org/1999/xlink" x="0px" y="0px"
	 viewBox="30 5 495 420" style="enable-background:new 0 0 595.28 841.89;" xml:space="preserve">
<style type="text/css">
	.st0{fill:#CA9E67;stroke:#000000;stroke-miterlimit:10;}
	.st1{fill:#683C11;stroke:#000000;stroke-miterlimit:10;}
	.st2{fill:#12672F;stroke:#000000;stroke-miterlimit:10;}
</style>
<path class="st0" d="M491.5,416.45c0,1.52-0.03,3.04-0.1,4.55H37.7c-0.07-1.51-0.1-3.03-0.1-4.55
	c0-82.88,101.61-150.06,226.96-150.06S491.5,333.58,491.5,416.45z"/>
<path class="st1" d="M331.91,353.27l11.61,3.62c4.03,1.26,8.27-1.35,9.41-5.79l52.9-205.98c1.14-4.44-1.23-9.11-5.26-10.36
	l-11.61-3.62c-4.03-1.26-8.27,1.35-9.41,5.79l-52.9,205.98C325.51,347.35,327.87,352.01,331.91,353.27z"/>
<polygon class="st2" points="427.02,152.87 427.22,152.66 427.34,152.8 "/>
<path class="st2" d="M494.19,224.97l-3.12-2.19l0.02-17.25l-19.96-0.04l0.03-18.9l-28.43-0.06l0.03-19.85l-31.54-0.06l0.03-17.05
	l-24.7-0.05l-3.28-2.3c13.93-24.12,50.06-26.28,80.69-4.81S508.12,200.84,494.19,224.97z"/>
<path class="st2" d="M523,137.01l-3.7,0.15l-8.88-14.2l-16.44,12.46l-9.73-15.57l-23.42,17.75l-10.22-16.35l-25.98,19.7l-8.78-14.05
	l-20.35,15.43l-3.88,0.16c-0.99-28.57,27.62-52.96,63.9-54.48S522.01,108.44,523,137.01z"/>
<path class="st2" d="M491.92,56.63l-2.95,2.46l-14.66-6.06l-7.01,20.58l-16.06-6.64l-9.99,29.32l-16.87-6.97l-11.08,32.53
	l-14.49-5.99l-8.68,25.47l-3.1,2.58c-15.64-22.81-4.84-60.85,24.13-84.95C440.11,34.86,476.27,33.82,491.92,56.63z"/>
<path class="st2" d="M393.84,145.22l-3.12-2.19l0.02-17.25l-19.96-0.04l0.03-18.9l-28.43-0.06l0.03-19.85l-31.54-0.06l0.03-17.05
	l-24.7-0.05l-3.28-2.3c13.93-24.12,50.06-26.28,80.69-4.81S407.78,121.09,393.84,145.22z"/>
<polygon class="st2" points="427.34,152.8 427.02,152.87 427.22,152.66 "/>
<polygon class="st2" points="290.47,161.27 290.67,161.06 290.79,161.19 "/>
<path class="st2" d="M397.89,147l-3.63,0.82l-10.88-12.4l-14.35,15.28l-11.92-13.59l-20.44,21.76l-12.52-14.27l-22.68,24.15
	l-10.76-12.26l-17.76,18.91l-3.81,0.87c-5.25-28,19.32-57.25,54.88-65.33S392.65,118.99,397.89,147z"/>
<path class="st1" d="M224.34,355.33l11.33-4.57c3.94-1.59,5.98-6.43,4.54-10.77l-66.79-201.03c-1.44-4.34-5.84-6.59-9.78-5
	l-11.33,4.57c-3.94,1.59-5.98,6.43-4.54,10.77l66.79,201.03C216.01,354.67,220.41,356.92,224.34,355.33z"/>
<path class="st2" d="M287.51,146.59l-3.7,0.24l-9.16-13.99l-16.19,12.86l-10.03-15.33l-23.06,18.31l-10.54-16.1l-25.58,20.32
	l-9.06-13.83L160.16,155l-3.88,0.26c-1.55-28.54,26.57-53.61,62.8-56.01S285.96,118.05,287.51,146.59z"/>
<path class="st2" d="M264.03,56.73l-2.91,2.51l-14.75-5.77l-6.68,20.71l-16.17-6.33L214,97.36l-16.98-6.64l-10.56,32.74l-14.59-5.71
	l-8.27,25.64l-3.06,2.64c-16.01-22.51-5.81-60.74,22.77-85.4S248.03,34.22,264.03,56.73z"/>
<path class="st2" d="M196.07,11.69l-1.09,3.9l-15.1,4.56l5.27,21.2l-16.55,4.99l7.51,30.2l-17.38,5.25l8.34,33.51l-14.93,4.51
	l6.53,26.24l-1.14,4.09c-24.82-8.38-36.31-46.17-25.67-84.4S171.25,3.31,196.07,11.69z"/>
<path class="st2" d="M163.77,146.79l-3.7,0.24l-9.16-13.99l-16.19,12.86l-10.03-15.33l-23.06,18.31l-10.54-16.1l-25.58,20.32
	l-9.06-13.83L36.42,155.2l-3.88,0.26c-1.55-28.54,26.57-53.61,62.8-56.01S162.22,118.25,163.77,146.79z"/>
<path class="st2" d="M168,145.61l-2.5,3.01l-15.42-3.02l-3.49,21.64l-16.89-3.31l-4.98,30.83l-17.74-3.47l-5.52,34.21l-15.24-2.98
	l-4.32,26.79l-2.62,3.16c-19.15-19.3-14.82-58.86,9.68-88.37S148.85,126.32,168,145.61z"/>
</svg>
