<svg version="1.1" id="Capa_1" xmlns="http://www.w3.org/2000/svg" 
	 viewBox="0 0 1550 1000" preserveAspectRatio="xMinYMin meet">
<style type="text/css">
	.st0{fill:#754C24;}
	.st1{fill:#9C9B9B;stroke:#1D1D1B;stroke-miterlimit:10;}
	.st2{fill:#020202;}
	.st3{fill:#FFFFFF;}
	.st4{fill:#1D1D1B;stroke:#1D1D1B;stroke-miterlimit:10;}
	.st5{fill:#925F36;stroke:#1D1D1B;stroke-miterlimit:10;}
</style>
<g>
	<path class="st0" d="M780.69,828.5c-53.02,0-102.89-14.24-144.23-41.18c-40.07-26.12-68.7-62.77-80.6-103.21l5.95-76.25
		c0.06-0.79,0.09-1.6,0.07-2.42c-0.1-5.11-1.79-10-4.89-14.12c-4.24-5.67-10.69-9.24-17.7-9.78l-52.75-4.12
		c-0.41-2.35-0.52-4.74-0.33-7.12c0.7-8.88,5.38-16.79,12.87-21.72c35.81,8.71,78.1,14.46,122.31,16.62
		c12.67,0.62,25.38,0.93,37.78,0.93c16.34,0,32.36-0.54,47.64-1.61v39.34c0,4.52,0.66,8.99,1.96,13.27c5.85,19.43,24.07,33,44.31,33
		h91.53c25.51,0,46.27-20.75,46.27-46.27v-8.44h34.74c17.58,0,33.93-10.28,41.66-26.18c3.06-6.31,4.61-13.06,4.61-20.08v-20.31
		c8.5,2.16,17.52,3.26,26.83,3.26c6.18,0,12.48-0.49,18.72-1.46c24.29-3.77,46.28-14.64,60.51-29.89l4.1,25.28
		c1,6.17-0.48,12.38-4.16,17.48s-9.11,8.47-15.28,9.47l-50.97,8.26l0.04,0.77c0.05,0.97,0.03,1.97-0.05,2.98l-10.25,131.34
		c-2.63,6.84-5.75,13.6-9.3,20.09C954.99,784.5,872.01,828.5,780.69,828.5z"/>
	<path d="M1077.61,501.82l3.93,24.28c0.98,6.04-0.47,12.11-4.07,17.11c-3.6,5-8.91,8.29-14.95,9.27l-50.53,8.19l-0.88,0.14
		l0.05,0.89l0.01,0.18l0.01,0.14c0.05,0.95,0.03,1.94-0.05,2.92l-2.49,31.97l-0.76,9.78l-6.99,89.51
		c-2.61,6.8-5.72,13.52-9.25,19.97c-17.88,32.82-46.79,60.69-83.61,80.59C870.26,817.2,826.22,828,780.69,828
		c-26.64,0-52.75-3.67-77.61-10.91c-24.02-6.99-46.34-17.15-66.35-30.19c-19.81-12.92-36.79-28.28-50.46-45.68
		c-13.86-17.64-23.92-36.87-29.91-57.17l5.94-76.15c0.06-0.81,0.09-1.64,0.07-2.47c-0.11-5.22-1.83-10.2-4.99-14.41
		c-4.33-5.79-10.91-9.42-18.06-9.98l-52.36-4.08c-0.35-2.19-0.44-4.4-0.27-6.61c0.68-8.65,5.21-16.37,12.47-21.22
		c35.8,8.69,78.04,14.42,122.19,16.58c12.68,0.62,25.4,0.93,37.81,0.93c16.16,0,32.01-0.53,47.14-1.58v38.8
		c0,4.57,0.67,9.09,1.98,13.41c5.91,19.64,24.33,33.35,44.79,33.35h91.53c25.79,0,46.77-20.98,46.77-46.77v-7.94h34.24
		c17.77,0,34.29-10.39,42.1-26.47c3.09-6.38,4.66-13.21,4.66-20.3v-19.67c8.36,2.07,17.21,3.12,26.33,3.12
		c6.21,0,12.53-0.49,18.79-1.47C1041.51,527.41,1063.29,516.77,1077.61,501.82 M1078.27,499.65c-13.62,15-35.33,26.52-60.92,30.49
		c-6.33,0.98-12.56,1.45-18.64,1.45c-9.63,0-18.85-1.19-27.33-3.41v20.95c0,7.11-1.64,13.85-4.56,19.86
		c-7.43,15.3-23.14,25.9-41.21,25.9h-35.24v8.94c0,25.17-20.59,45.77-45.77,45.77h-91.53c-20.62,0-38.16-13.81-43.83-32.64
		c-1.26-4.16-1.94-8.57-1.94-13.12v-39.87c-15.24,1.08-31.37,1.65-48.14,1.65c-12.27,0-24.89-0.3-37.76-0.93
		c-45.71-2.23-87.91-8.24-122.43-16.65c-7.38,4.79-12.54,12.83-13.28,22.22c-0.21,2.6-0.05,5.16,0.41,7.62l53.13,4.15
		c7.14,0.56,13.34,4.23,17.34,9.58c2.92,3.9,4.68,8.71,4.79,13.83c0.02,0.78-0.01,1.57-0.07,2.37l-5.95,76.34
		C579.77,767.24,671.4,829,780.69,829c94.49,0,175.77-46.16,211.83-112.35c3.58-6.55,6.7-13.3,9.35-20.22l7-89.65l0.76-9.78
		l2.49-31.97c0.08-1.03,0.09-2.04,0.05-3.04c-0.01-0.11-0.01-0.22-0.02-0.32l50.53-8.19c13.03-2.11,21.96-14.5,19.85-27.52
		L1078.27,499.65L1078.27,499.65z"/>
</g>
<path class="st1" d="M663.51,658.86l-4.8-0.28c-0.59,16.82-15.9,30.71-36.04,33.77l-6.64,14.03l-8.25-13.78
	c-21.46-2.51-37.93-17.24-37.93-35.03c0-1.62,0.14-3.21,0.4-4.78l-4.68-0.27l7.59-10.35l6.35,11.16l-6.48-0.37
	c5.14,13.4,19.98,23.41,37.99,24.86c-0.15-0.49-0.22-1-0.22-1.54v-58.45c0-0.71,0.14-1.4,0.39-2.02h-8.74
	c-3.7,0-6.73-3.03-6.73-6.73c0-1.85,0.76-3.53,1.98-4.76c1.22-1.22,2.9-1.98,4.76-1.98h6.69c-1.32-1.51-2.11-3.49-2.11-5.66
	c0-4.76,3.86-8.62,8.62-8.62s8.62,3.86,8.62,8.62c0,2.17-0.8,4.14-2.11,5.66h8.04c3.7,0,6.73,3.03,6.73,6.73
	c0,1.85-0.76,3.53-1.98,4.76c-1.22,1.22-2.9,1.98-4.76,1.98h-8.74c0.25,0.62,0.39,1.31,0.39,2.02v58.45c0,0.48-0.06,0.94-0.18,1.38
	c14.78-1.63,27.23-9.04,33.64-19.28l-4.19-0.24l6.81-10.37L663.51,658.86z"/>
<circle class="st1" cx="805.94" cy="706.17" r="33.67"/>
<circle class="st1" cx="712.83" cy="706.17" r="33.67"/>
<circle class="st1" cx="893.26" cy="706.17" r="33.67"/>
<circle class="st1" cx="712.83" cy="706.17" r="18.41"/>
<circle class="st1" cx="805.94" cy="706.17" r="18.41"/>
<circle class="st1" cx="893.26" cy="706.69" r="18.41"/>
<g>
	<path class="st0" d="M797.13,652.09c-4.95,0-8.97-4.02-8.97-8.97V180.39c0-4.95,4.02-8.97,8.97-8.97c4.95,0,8.97,4.02,8.97,8.97
		v462.73C806.1,648.07,802.07,652.09,797.13,652.09z"/>
	<g>
		<path d="M797.13,171.92c4.67,0,8.47,3.8,8.47,8.47v462.74c0,4.67-3.8,8.47-8.47,8.47c-4.67,0-8.47-3.8-8.47-8.47V180.39
			C788.66,175.72,792.46,171.92,797.13,171.92 M797.13,170.92L797.13,170.92c-5.21,0-9.47,4.26-9.47,9.47v462.74
			c0,5.21,4.26,9.47,9.47,9.47h0c5.21,0,9.47-4.26,9.47-9.47V180.39C806.6,175.18,802.34,170.92,797.13,170.92L797.13,170.92z"/>
	</g>
</g>
<g>
	<path class="st0" d="M689.9,241.96c-4.37,0-7.92-3.55-7.92-7.92s3.55-7.92,7.92-7.92H903.4c4.37,0,7.92,3.55,7.92,7.92
		s-3.55,7.92-7.92,7.92H689.9z"/>
	<g>
		<path d="M903.4,226.63c4.09,0,7.42,3.33,7.42,7.42s-3.33,7.42-7.42,7.42H689.9c-4.09,0-7.42-3.33-7.42-7.42s3.33-7.42,7.42-7.42
			H903.4 M903.4,225.63H689.9c-4.63,0-8.42,3.79-8.42,8.42s3.79,8.42,8.42,8.42H903.4c4.63,0,8.42-3.79,8.42-8.42
			S908.03,225.63,903.4,225.63L903.4,225.63z"/>
	</g>
</g>
<g>
	<path class="st0" d="M624.46,423.97c-4.8,0-8.71-3.91-8.71-8.71s3.91-8.71,8.71-8.71h326.67c4.8,0,8.71,3.91,8.71,8.71
		s-3.91,8.71-8.71,8.71H624.46z"/>
	<g>
		<path d="M951.13,407.06c4.52,0,8.21,3.68,8.21,8.21s-3.68,8.21-8.21,8.21H624.46c-4.52,0-8.21-3.68-8.21-8.21s3.68-8.21,8.21-8.21
			H951.13 M951.13,406.06H624.46c-5.06,0-9.21,4.14-9.21,9.21s4.14,9.21,9.21,9.21h326.67c5.06,0,9.21-4.14,9.21-9.21
			S956.19,406.06,951.13,406.06L951.13,406.06z"/>
	</g>
</g>
<g>
	<path d="M929,424.55V558c-24.74-7.17-82.28-12.19-149.31-12.19c-57.41,0-107.85,3.68-136.69,9.24V424.47
		c27.32,6.31,81.19,10.61,143.17,10.61C847.9,435.08,901.57,430.82,929,424.55z"/>
	<g>
		<path class="st2" d="M927.5,424.55c0,4.44,0,8.89,0,13.33c0,10.62,0,21.24,0,31.86c0,12.84,0,25.68,0,38.52c0,11.1,0,22.2,0,33.3
			c0,3.67,0,7.34,0,11.01c0,1.67-0.24,3.54,0,5.19c0.01,0.07,0,0.16,0,0.23c0.63-0.48,1.27-0.96,1.9-1.45
			c-12.66-3.65-25.94-5.34-39-6.85c-19.17-2.21-38.44-3.48-57.72-4.3c-23.44-1-46.92-1.29-70.38-0.98
			c-21.8,0.29-43.6,1.09-65.35,2.69c-16.59,1.22-33.21,2.81-49.61,5.63c-1.59,0.27-3.17,0.56-4.75,0.86
			c0.63,0.48,1.27,0.96,1.9,1.45c0-4.35,0-8.69,0-13.04c0-10.38,0-20.77,0-31.15c0-12.56,0-25.11,0-37.67c0-10.89,0-21.79,0-32.68
			c0-3.56,0-7.13,0-10.69c0-1.63,0.25-3.5,0-5.12c-0.01-0.07,0-0.15,0-0.22c-0.63,0.48-1.27,0.96-1.9,1.45
			c14.17,3.26,28.71,4.95,43.16,6.36c20.22,1.97,40.53,3.07,60.84,3.7c23.42,0.73,46.87,0.8,70.3,0.24
			c20.89-0.49,41.78-1.48,62.6-3.29c15.28-1.33,30.62-2.98,45.67-6.03c1.41-0.29,2.82-0.59,4.23-0.91c1.88-0.43,1.09-3.32-0.8-2.89
			c-14.1,3.21-28.57,4.89-42.95,6.27c-20.11,1.93-40.3,3.01-60.49,3.63c-23.34,0.71-46.7,0.78-70.03,0.22
			c-20.75-0.5-41.49-1.47-62.17-3.27c-15.18-1.32-30.42-2.95-45.37-6.01c-1.4-0.29-2.8-0.59-4.2-0.91c-0.94-0.22-1.9,0.44-1.9,1.45
			c0,4.35,0,8.69,0,13.04c0,10.38,0,20.77,0,31.15c0,12.56,0,25.11,0,37.67c0,10.89,0,21.79,0,32.68c0,5.26-0.22,10.57,0,15.82
			c0,0.07,0,0.15,0,0.22c0,1.04,0.95,1.63,1.9,1.45c15.52-2.98,31.31-4.6,47.06-5.89c21.16-1.73,42.4-2.64,63.63-3.05
			c23.37-0.46,46.75-0.31,70.11,0.52c19.93,0.7,39.86,1.86,59.7,3.92c13.78,1.43,27.7,3.11,41.15,6.5c1.19,0.3,2.37,0.62,3.55,0.96
			c0.94,0.27,1.9-0.48,1.9-1.45c0-4.44,0-8.89,0-13.33c0-10.62,0-21.24,0-31.86c0-12.84,0-25.68,0-38.52c0-11.1,0-22.2,0-33.3
			c0-5.39,0.21-10.82,0-16.2c0-0.08,0-0.16,0-0.23C930.5,422.62,927.5,422.62,927.5,424.55z"/>
	</g>
</g>
<g>
	<path d="M912.47,237.1v177.76c-20.05-9.55-66.66-16.23-120.97-16.23c-46.51,0-87.38,4.91-110.75,12.31V236.99
		c22.14,8.41,65.78,14.13,116,14.13C846.75,251.12,890.24,245.45,912.47,237.1z"/>
	<g>
		<path class="st2" d="M910.97,237.1c0,1.58,0,3.16,0,4.74c0,4.32,0,8.65,0,12.97c0,6.37,0,12.73,0,19.1c0,7.77,0,15.53,0,23.3
			c0,8.55,0,17.1,0,25.65c0,8.59,0,17.18,0,25.76c0,8.01,0,16.02,0,24.03c0,6.77,0,13.54,0,20.31c0,4.89,0,9.79,0,14.68
			c0,2.27-0.21,4.66,0,6.92c0.01,0.1,0,0.2,0,0.3c0.75-0.43,1.5-0.86,2.26-1.3c-9.9-4.69-20.86-7.16-31.57-9.19
			c-15.53-2.95-31.3-4.67-47.06-5.78c-18.87-1.33-37.81-1.72-56.72-1.33c-17.78,0.37-35.56,1.44-53.22,3.56
			c-13.6,1.63-27.25,3.77-40.44,7.5c-1.29,0.37-2.58,0.75-3.86,1.16c0.63,0.48,1.27,0.96,1.9,1.45c0-1.55,0-3.1,0-4.66
			c0-4.22,0-8.45,0-12.67c0-6.21,0-12.42,0-18.64c0-7.62,0-15.23,0-22.85c0-8.34,0-16.69,0-25.03c0-8.42,0-16.85,0-25.27
			c0-7.85,0-15.71,0-23.56c0-6.61,0-13.22,0-19.82c0-4.78,0-9.56,0-14.34c0-2.23,0.21-4.58,0-6.8c-0.01-0.1,0-0.2,0-0.29
			c-0.63,0.48-1.27,0.96-1.9,1.45c11.24,4.25,23.23,6.59,35.06,8.47c16.29,2.59,32.75,4.07,49.22,4.91
			c19,0.97,38.05,1.06,57.05,0.32c16.93-0.66,33.86-1.99,50.64-4.37c12.5-1.77,25.1-4.02,37.11-8.02c1.15-0.38,2.29-0.79,3.43-1.21
			c1.79-0.67,1.02-3.57-0.8-2.89c-11.19,4.19-23.08,6.51-34.85,8.38c-16.24,2.58-32.66,4.01-49.08,4.83
			c-18.84,0.94-37.74,1.02-56.59,0.28c-16.85-0.66-33.7-1.96-50.39-4.37c-12.33-1.78-24.77-4.02-36.6-8
			c-1.14-0.38-2.28-0.79-3.41-1.22c-0.93-0.35-1.9,0.55-1.9,1.45c0,1.55,0,3.1,0,4.66c0,4.22,0,8.45,0,12.67c0,6.21,0,12.42,0,18.64
			c0,7.62,0,15.23,0,22.85c0,8.34,0,16.69,0,25.03c0,8.42,0,16.85,0,25.27c0,7.85,0,15.71,0,23.56c0,6.61,0,13.22,0,19.82
			c0,4.78,0,9.56,0,14.34c0,2.26-0.07,4.54,0,6.8c0,0.1,0,0.2,0,0.29c0,0.94,0.96,1.74,1.9,1.45c12.36-3.9,25.25-6.14,38.06-7.86
			c17-2.29,34.15-3.5,51.28-4.06c18.98-0.62,38.01-0.42,56.97,0.67c16.1,0.93,32.2,2.46,48.1,5.18c11.28,1.92,22.79,4.26,33.42,8.63
			c0.92,0.38,1.83,0.79,2.73,1.21c1,0.47,2.26-0.08,2.26-1.3c0-1.58,0-3.16,0-4.74c0-4.32,0-8.65,0-12.97c0-6.37,0-12.73,0-19.1
			c0-7.77,0-15.53,0-23.3c0-8.55,0-17.1,0-25.65c0-8.59,0-17.18,0-25.76c0-8.01,0-16.02,0-24.03c0-6.77,0-13.54,0-20.31
			c0-4.89,0-9.79,0-14.68c0-2.3,0.07-4.62,0-6.92c0-0.1,0-0.2,0-0.3C913.97,235.17,910.97,235.16,910.97,237.1z"/>
	</g>
</g>
<path class="st3" d="M796.65,263.77c-15.54,0-28.15,10.87-28.15,24.28c0,8.74,5.34,16.39,13.36,20.66v23.29h6.68v-16.6h4.77v16.6
	h6.68v-16.6h4.77v16.6h5.73v-22.81c8.55-4.17,14.31-12.07,14.31-21.15C824.8,274.64,812.19,263.77,796.65,263.77z M786.15,290.82
	c-5.53,0-10.02-2.89-10.02-6.46c0-3.57,4.48-6.46,10.02-6.46s10.02,2.89,10.02,6.46C796.17,287.93,791.68,290.82,786.15,290.82z
	 M810.96,290.82c-5.53,0-10.02-2.89-10.02-6.46c0-3.57,4.48-6.46,10.02-6.46s10.02,2.89,10.02,6.46
	C820.98,287.93,816.5,290.82,810.96,290.82z"/>
<path class="st3" d="M835.32,378.4c-2.33,2.05-6.81,2.5-10,1c-3.08-1.45-3.83-4.19-1.78-6.22c-0.28-0.1-0.56-0.21-0.82-0.34
	l-75.46-35.59c-0.27-0.13-0.52-0.26-0.75-0.41c-2.39,1.87-6.66,2.24-9.74,0.79c-3.19-1.5-3.88-4.39-1.55-6.44s6.81-2.5,10-1
	c0.13,0.06,0.25,0.12,0.37,0.2l0.03-0.03c-0.14-0.05-0.27-0.1-0.4-0.17c-3.19-1.5-3.88-4.39-1.55-6.44c2.33-2.05,6.81-2.5,10-1
	c3.08,1.45,3.83,4.19,1.78,6.22c0.28,0.1,0.56,0.21,0.82,0.34l75.46,35.59c0.27,0.13,0.52,0.26,0.75,0.41
	c2.39-1.87,6.66-2.24,9.74-0.79c3.19,1.5,3.88,4.39,1.55,6.44c-2.33,2.05-6.81,2.5-10,1c-0.13-0.06-0.25-0.12-0.37-0.2l-0.03,0.03
	c0.14,0.05,0.27,0.1,0.4,0.17C836.95,373.46,837.65,376.34,835.32,378.4z"/>
<path class="st3" d="M859.01,336.3c1.86,2.24,0.55,5.04-2.94,6.24c-3.37,1.16-7.52,0.41-9.48-1.66c-0.26,0.12-0.53,0.23-0.83,0.33
	l-82.47,28.41c-0.29,0.1-0.59,0.19-0.89,0.26c1.59,2.2,0.25,4.84-3.11,6c-3.48,1.2-7.82,0.35-9.69-1.89s-0.55-5.04,2.94-6.24
	c0.14-0.05,0.28-0.09,0.43-0.13l-0.03-0.03c-0.13,0.06-0.26,0.11-0.41,0.16c-3.48,1.2-7.82,0.35-9.69-1.89
	c-1.86-2.24-0.55-5.04,2.94-6.24c3.37-1.16,7.52-0.41,9.48,1.66c0.26-0.12,0.53-0.23,0.83-0.33l82.47-28.41
	c0.29-0.1,0.59-0.19,0.89-0.26c-1.59-2.2-0.25-4.84,3.11-6c3.48-1.2,7.82-0.35,9.69,1.89s0.55,5.04-2.94,6.24
	c-0.14,0.05-0.28,0.09-0.43,0.13l0.03,0.03c0.13-0.06,0.26-0.11,0.41-0.16C852.81,333.21,857.15,334.05,859.01,336.3z"/>
<g>
	<circle class="st0" cx="797.26" cy="185.12" r="17.12"/>
	<g>
		<path d="M797.26,168.5c9.17,0,16.62,7.46,16.62,16.62s-7.46,16.62-16.62,16.62c-9.17,0-16.62-7.46-16.62-16.62
			S788.1,168.5,797.26,168.5 M797.26,167.5c-9.73,0-17.62,7.89-17.62,17.62s7.89,17.62,17.62,17.62c9.73,0,17.62-7.89,17.62-17.62
			S806.99,167.5,797.26,167.5L797.26,167.5z"/>
	</g>
</g>
<rect x="843.29" y="605.54" transform="matrix(-1.836970e-16 1 -1 -1.836970e-16 1470.3749 -222.4211)" class="st4" width="6.21" height="36.87"/>
<path class="st5" d="M866.03,615.23v23.15c0,3.35-1.01,6.48-2.76,9.15c-0.81,1.23-1.77,2.36-2.86,3.36
	c-3.27,1.14-8.73,1.88-14.91,1.88c-6.18,0-11.64-0.75-14.91-1.88c-1.09-1-2.06-2.13-2.86-3.36c-1.75-2.67-2.76-5.8-2.76-9.15v-23.15
	c0-3.17,0.91-6.15,2.49-8.73c0,0,0,0,0,0c0.52-0.84,1.1-1.63,1.75-2.37l0,0c2.95-1.45,9.14-2.45,16.29-2.45
	c7.15,0,13.34,1,16.29,2.45l0,0c0.65,0.74,1.24,1.53,1.75,2.37c0,0,0,0,0,0C865.13,609.07,866.03,612.06,866.03,615.23z"/>
<path class="st5" d="M863.64,648.39c0,0.93-1.19,1.78-3.23,2.49c-3.27,1.14-8.73,1.88-14.91,1.88c-6.18,0-11.64-0.75-14.91-1.88
	c-2.04-0.71-3.23-1.57-3.23-2.49c0-0.3,0.12-0.59,0.36-0.87c1.68-2,9-3.5,17.77-3.5c8.77,0,16.1,1.5,17.77,3.5
	C863.51,647.8,863.64,648.09,863.64,648.39z"/>
<rect x="842.23" y="615.07" transform="matrix(6.123234e-17 -1 1 6.123234e-17 209.9637 1481.2393)" class="st4" width="6.74" height="41.14"/>
<rect x="842.23" y="595.87" transform="matrix(6.123234e-17 -1 1 6.123234e-17 229.1585 1462.0444)" class="st4" width="6.74" height="41.14"/>
<path class="st5" d="M949.06,545.19c-0.44-0.54-0.92-1.08-1.41-1.59c-0.16-0.17-0.33-0.34-0.5-0.5h0
	c-4.72-4.59-11.39-7.58-18.86-7.92c-0.48-0.02-0.97-0.04-1.46-0.04c-0.44,0-0.88,0.01-1.32,0.03c-0.07,0-0.13,0.01-0.2,0.01
	c-5.82,0.28-11.17,2.17-15.47,5.17c-0.79,0.55-1.55,1.15-2.27,1.77c-3.86,3.37-6.6,7.73-7.67,12.63c-0.19,0.88-0.33,1.78-0.41,2.7
	c-0.06,0.64-0.08,1.29-0.08,1.94c0,5.07,1.76,9.78,4.78,13.67c0.14,0.18,0.29,0.37,0.44,0.55c0.18,0.22,0.37,0.45,0.57,0.66
	c0.1,0.12,0.2,0.23,0.31,0.34c0.18,0.19,0.36,0.38,0.54,0.57c4.72,4.85,11.57,8.02,19.27,8.39c0.5,0.03,1.01,0.04,1.52,0.04
	c0.49,0,0.98-0.01,1.46-0.03c5.91-0.27,11.33-2.2,15.67-5.28c0.79-0.56,1.54-1.16,2.26-1.78c3.88-3.43,6.6-7.87,7.61-12.84
	c0.05-0.22,0.09-0.44,0.12-0.67c0.03-0.17,0.06-0.34,0.08-0.51c0.02-0.17,0.05-0.33,0.07-0.5c0.02-0.17,0.04-0.34,0.06-0.51
	c0.02-0.17,0.03-0.34,0.04-0.51c0.04-0.53,0.06-1.07,0.06-1.6C954.25,554.08,952.32,549.18,949.06,545.19z M950.31,560.54
	c-0.06,0.92-0.18,1.82-0.37,2.7c-0.88,4.13-3.13,7.83-6.33,10.7c-0.71,0.64-1.46,1.24-2.26,1.79c-3.64,2.53-8.15,4.14-13.07,4.4
	c-0.49,0.03-0.98,0.04-1.46,0.04c-0.51,0-1.02-0.01-1.52-0.04c-6.45-0.36-12.21-3.03-16.21-7.08c-0.67-0.67-1.29-1.39-1.85-2.14
	c-2.49-3.3-3.95-7.27-3.95-11.53c0-0.5,0.02-1,0.06-1.5c0.08-0.91,0.22-1.82,0.42-2.69c0.94-4.05,3.21-7.68,6.39-10.5
	c0.71-0.63,1.47-1.23,2.27-1.77c3.6-2.46,8.04-4.02,12.87-4.3c0.5-0.03,1.01-0.04,1.52-0.04c0.49,0,0.98,0.02,1.46,0.04
	c6.23,0.34,11.8,2.82,15.79,6.62c0.69,0.66,1.33,1.36,1.92,2.09c2.74,3.4,4.35,7.56,4.35,12.06
	C950.35,559.77,950.34,560.16,950.31,560.54z"/>
<path class="st5" d="M931.36,560.39l-1.09,0.91c0.39,0.01,0.77,0.16,1.05,0.44l12.29,12.21c-0.71,0.64-1.46,1.24-2.26,1.79
	l-12.22-12.15c-0.26-0.26-0.39-0.59-0.39-0.92c0-0.02,0-0.05,0-0.07l-0.77,0.65c0.18,0.13,0.31,0.36,0.31,0.64v16.26
	c-0.49,0.03-0.98,0.04-1.46,0.04c-0.51,0-1.02-0.01-1.52-0.04v-16.26c0-0.29,0.14-0.54,0.34-0.66l-1.15-1.14
	c-0.1,0.22-0.26,0.41-0.47,0.56l-14.93,10.42c-0.67-0.67-1.29-1.39-1.85-2.14l14.97-10.45c0.14-0.1,0.29-0.17,0.45-0.21l-0.45-0.45
	c-0.26,0.13-0.57,0.19-0.88,0.15l-17.99-2.07c0.08-0.91,0.22-1.82,0.42-2.69l17.94,2.06c0.47,0.05,0.86,0.31,1.09,0.65l0.41-0.35
	c-0.14-0.07-0.27-0.16-0.38-0.27l-12.67-12.59c0.71-0.63,1.47-1.23,2.27-1.77l12.59,12.52c0.12,0.12,0.21,0.24,0.27,0.37l1.03-0.86
	h-0.38c-0.34,0-0.63-0.34-0.63-0.75v-15.58c0.5-0.03,1.01-0.04,1.52-0.04c0.49,0,0.98,0.02,1.46,0.04v15.58
	c0,0.41-0.28,0.75-0.63,0.75h-0.09l1.33,1.32c0.07-0.32,0.26-0.61,0.56-0.82l14.62-10.21c0.69,0.66,1.33,1.36,1.92,2.09
	l-14.74,10.29c-0.22,0.15-0.48,0.24-0.74,0.27l1.12,1.11c0.31-0.33,0.8-0.51,1.31-0.46l17.37,2c-0.06,0.92-0.18,1.82-0.37,2.7
	l-17.38-2C932.01,561.19,931.56,560.84,931.36,560.39z"/>
<path class="st5" d="M899.89,554.75c-0.19,0.88-0.33,1.78-0.41,2.7l-6.4-0.74c-0.45,0.74-1.18,1.23-2,1.23
	c-1.36,0-2.46-1.31-2.46-2.92c0-1.61,1.1-2.92,2.46-2.92c1.05,0,1.95,0.79,2.3,1.9L899.89,554.75z"/>
<path class="st5" d="M929.31,594.1c0,1.61-1.1,2.92-2.46,2.92s-2.46-1.31-2.46-2.92c0-0.92,0.36-1.73,0.91-2.27
	c0-0.03,0-0.06,0-0.09v-8.15c0.5,0.02,1.01,0.04,1.52,0.04c0.49,0,0.98-0.01,1.46-0.03v8.13
	C928.9,592.25,929.31,593.12,929.31,594.1z"/>
<path class="st5" d="M953.37,583.32c0,1.61-1.1,2.92-2.46,2.92c-1.36,0-2.46-1.31-2.46-2.92c0-0.17,0.01-0.33,0.03-0.49l-4.54-4.51
	c0.79-0.56,1.54-1.15,2.26-1.78l4.01,3.99c0.22-0.08,0.45-0.12,0.7-0.12C952.27,580.4,953.37,581.7,953.37,583.32z"/>
<path class="st5" d="M965.59,563.26c0,1.61-1.1,2.92-2.46,2.92c-0.98,0-1.82-0.68-2.22-1.66l-7.1-0.82c0.18-0.88,0.31-1.79,0.37-2.7
	l6.83,0.79c0.43-0.86,1.21-1.44,2.12-1.44C964.49,560.34,965.59,561.64,965.59,563.26z"/>
<path class="st5" d="M958.28,539c0,1.61-1.1,2.92-2.46,2.92c-0.51,0-0.98-0.18-1.37-0.5c-0.02,0.01-0.04,0.02-0.05,0.04l-5.34,3.73
	c-0.6-0.73-1.24-1.42-1.92-2.09l5.45-3.81c0.23-0.16,0.5-0.25,0.78-0.27V539c0-1.61,1.1-2.92,2.46-2.92S958.28,537.39,958.28,539z"
	/>
<path class="st5" d="M929.31,524.63c0,0.98-0.41,1.84-1.03,2.37v8.17c-0.48-0.02-0.97-0.03-1.46-0.03c-0.51,0-1.02,0.01-1.52,0.04
	v-8.29c-0.55-0.53-0.91-1.35-0.91-2.27c0-1.61,1.1-2.92,2.46-2.92S929.31,523.02,929.31,524.63z"/>
<path class="st5" d="M909.83,540.35c-0.79,0.55-1.55,1.14-2.27,1.77l-3.42-3.4c-0.15,0.04-0.32,0.06-0.48,0.06
	c-1.36,0-2.46-1.31-2.46-2.92c0-1.61,1.1-2.92,2.46-2.92c1.36,0,2.46,1.31,2.46,2.92c0,0.25-0.03,0.5-0.08,0.73v0L909.83,540.35z"/>
<path class="st5" d="M900.94,578.75c0.01,0.12,0.02,0.25,0.02,0.38c0,1.61-1.1,2.92-2.46,2.92c-1.36,0-2.46-1.31-2.46-2.92
	c0-1.61,1.1-2.92,2.46-2.92c0.31,0,0.61,0.07,0.88,0.19l4.78-3.34c0.57,0.74,1.2,1.45,1.86,2.13L900.94,578.75z"/>
</svg>
