<?xml version="1.0" encoding="utf-8"?>
<!-- Generator: Adobe Illustrator 25.1.0, SVG Export Plug-In . SVG Version: 6.00 Build 0)  -->
<svg version="1.1" id="Capa_1" xmlns="http://www.w3.org/2000/svg" xmlns:xlink="http://www.w3.org/1999/xlink" 
	 viewBox="355 920 320 340" preserveAspectRatio="xMinYMin meet">
<g>
	<path fill="#754C24" d="M512.07,1253.75c-27.59,0-53.55-7.13-75.06-20.61c-20.85-13.07-35.75-31.41-41.95-51.65l3.1-38.15
		c0.03-0.4,0.05-0.8,0.04-1.21c-0.05-2.56-0.93-5-2.54-7.07c-2.21-2.84-5.56-4.62-9.21-4.89l-27.45-2.06
		c-0.21-1.18-0.27-2.37-0.17-3.56c0.36-4.44,2.8-8.4,6.7-10.87c18.64,4.36,40.64,7.24,63.65,8.32c6.59,0.31,13.21,0.47,19.66,0.47
		c8.5,0,16.84-0.27,24.79-0.81v19.69c0,2.26,0.34,4.5,1.02,6.64c3.04,9.72,12.53,16.51,23.06,16.51h47.63
		c13.28,0,24.08-10.38,24.08-23.15v-4.22h18.08c9.15,0,17.66-5.14,21.68-13.1c1.59-3.16,2.4-6.54,2.4-10.05v-10.16
		c4.42,1.08,9.12,1.63,13.96,1.63c3.22,0,6.49-0.25,9.74-0.73c12.64-1.89,24.08-7.33,31.49-14.96l2.13,12.65
		c0.52,3.09-0.25,6.19-2.16,8.75s-4.74,4.24-7.95,4.74l-26.53,4.13l0.02,0.39c0.03,0.49,0.02,0.99-0.03,1.49l-5.33,65.72
		c-1.37,3.42-2.99,6.81-4.84,10.05C602.78,1231.73,559.59,1253.75,512.07,1253.75z"/>
	<path d="M666.59,1090.28l2.05,12.15c0.51,3.02-0.24,6.06-2.12,8.56c-1.87,2.5-4.64,4.15-7.78,4.64l-26.3,4.1l-0.46,0.07l0.03,0.45
		l0.01,0.09l0.01,0.07c0.03,0.48,0.02,0.97-0.03,1.46l-1.3,16l-0.4,4.89l-3.64,44.79c-1.36,3.4-2.98,6.77-4.81,9.99
		c-9.31,16.42-24.35,30.37-43.51,40.33c-19.66,10.23-42.58,15.63-66.27,15.63c-13.86,0-27.45-1.84-40.39-5.46
		c-12.5-3.5-24.12-8.58-34.53-15.11c-10.31-6.47-19.15-14.15-26.26-22.86c-7.21-8.83-12.45-18.45-15.57-28.61l3.09-38.1
		c0.03-0.41,0.05-0.82,0.04-1.24c-0.06-2.61-0.95-5.1-2.6-7.21c-2.25-2.9-5.68-4.71-9.4-4.99l-27.25-2.04
		c-0.18-1.1-0.23-2.2-0.14-3.31c0.35-4.33,2.71-8.19,6.49-10.62c18.63,4.35,40.61,7.22,63.59,8.3c6.6,0.31,13.22,0.47,19.68,0.47
		c8.41,0,16.66-0.27,24.53-0.79v19.42c0,2.29,0.35,4.55,1.03,6.71c3.08,9.83,12.66,16.69,23.31,16.69h47.63
		c13.42,0,24.34-10.5,24.34-23.4v-3.97h17.82c9.25,0,17.85-5.2,21.91-13.25c1.61-3.19,2.43-6.61,2.43-10.16v-9.84
		c4.35,1.04,8.96,1.56,13.7,1.56c3.23,0,6.52-0.25,9.78-0.74C647.8,1103.09,659.14,1097.76,666.59,1090.28 M666.93,1089.2
		c-7.09,7.51-18.39,13.27-31.7,15.26c-3.29,0.49-6.54,0.73-9.7,0.73c-5.01,0-9.81-0.6-14.22-1.71v10.48c0,3.56-0.85,6.93-2.37,9.94
		c-3.87,7.66-12.04,12.96-21.45,12.96h-18.34v4.47c0,12.59-10.72,22.9-23.82,22.9h-47.63c-10.73,0-19.86-6.91-22.81-16.33
		c-0.66-2.08-1.01-4.29-1.01-6.57v-19.95c-7.93,0.54-16.33,0.83-25.05,0.83c-6.39,0-12.95-0.15-19.65-0.47
		c-23.79-1.12-45.75-4.12-63.71-8.33c-3.84,2.4-6.53,6.42-6.91,11.12c-0.11,1.3-0.03,2.58,0.21,3.81l27.65,2.08
		c3.72,0.28,6.94,2.12,9.02,4.79c1.52,1.95,2.44,4.36,2.49,6.92c0.01,0.39-0.01,0.79-0.04,1.19l-3.1,38.2
		c12.71,41.58,60.4,72.48,117.28,72.48c49.17,0,91.47-23.1,110.24-56.22c1.86-3.28,3.49-6.66,4.87-10.12l3.64-44.86l0.4-4.89l1.3-16
		c0.04-0.52,0.05-1.02,0.03-1.52c-0.01-0.06-0.01-0.11-0.01-0.16l26.3-4.1c6.78-1.06,11.43-7.26,10.33-13.77L666.93,1089.2
		L666.93,1089.2z"/>
</g>
<g>
	<path fill="#9C9B9B" d="M451.08,1168.86l-2.5-0.14c-0.31,8.42-8.27,15.37-18.76,16.9l-3.46,7.02l-4.29-6.9
		c-11.17-1.26-19.74-8.63-19.74-17.53c0-0.81,0.07-1.61,0.21-2.39l-2.44-0.14l3.95-5.18l3.3,5.58l-3.37-0.19
		c2.67,6.71,10.4,11.71,19.77,12.44c-0.08-0.25-0.11-0.5-0.11-0.77v-29.25c0-0.36,0.07-0.7,0.2-1.01h-4.55
		c-1.93,0-3.5-1.52-3.5-3.37c0-0.93,0.4-1.77,1.03-2.38c0.63-0.61,1.51-0.99,2.48-0.99h3.48c-0.69-0.76-1.1-1.75-1.1-2.83
		c0-2.38,2.01-4.31,4.49-4.31s4.49,1.93,4.49,4.31c0,1.09-0.42,2.07-1.1,2.83h4.18c1.93,0,3.5,1.52,3.5,3.37
		c0,0.93-0.4,1.77-1.03,2.38c-0.63,0.61-1.51,0.99-2.48,0.99h-4.55c0.13,0.31,0.2,0.66,0.2,1.01v29.25c0,0.24-0.03,0.47-0.09,0.69
		c7.69-0.82,14.17-4.52,17.51-9.65l-2.18-0.12l3.54-5.19L451.08,1168.86z"/>
	<path fill="#1D1D1B" d="M426.4,1193.17l-4.48-7.19c-11.32-1.32-19.84-8.94-19.84-17.76c0-0.71,0.06-1.43,0.17-2.16l-2.63-0.15
		l4.47-5.86l3.74,6.32l-3.44-0.19c2.78,6.47,10.18,11.1,19.04,11.89c-0.03-0.16-0.04-0.32-0.04-0.49v-29.25
		c0-0.26,0.04-0.51,0.1-0.76h-4.19c-2.07,0-3.76-1.62-3.76-3.62c0-0.96,0.39-1.87,1.11-2.56c0.71-0.69,1.66-1.06,2.66-1.06h2.95
		c-0.54-0.75-0.83-1.65-0.83-2.58c0-2.52,2.13-4.56,4.75-4.56c2.62,0,4.75,2.05,4.75,4.56c0,0.92-0.29,1.82-0.83,2.58h3.66
		c2.07,0,3.76,1.62,3.76,3.62c0,0.96-0.39,1.87-1.11,2.56c-0.71,0.69-1.66,1.06-2.66,1.06h-4.19c0.07,0.25,0.1,0.51,0.1,0.76v29.25
		c0,0.14-0.01,0.27-0.03,0.4c7.15-0.85,13.35-4.23,16.72-9.13l-2.19-0.12l4.04-5.91l3.31,6.32l-2.68-0.15
		c-0.45,8.22-8.31,15.27-18.83,16.86L426.4,1193.17z M400.61,1165.47l2.25,0.13l-0.05,0.27c-0.14,0.79-0.2,1.58-0.2,2.35
		c0,8.6,8.39,16.03,19.51,17.28l0.13,0.01l4.11,6.6l3.31-6.72l0.14-0.02c10.44-1.53,18.24-8.53,18.54-16.66l0.01-0.26l2.31,0.13
		l-2.5-4.78l-3.05,4.46l2.17,0.12l-0.23,0.36c-3.45,5.3-10.07,8.95-17.7,9.76l-0.38,0.04l0.1-0.35c0.06-0.2,0.08-0.41,0.08-0.62
		v-29.25c0-0.31-0.06-0.63-0.18-0.92l-0.14-0.34h4.93c0.86,0,1.68-0.33,2.29-0.92c0.61-0.6,0.95-1.38,0.95-2.2
		c0-1.72-1.45-3.12-3.24-3.12H429l0.37-0.41c0.67-0.74,1.04-1.69,1.04-2.67c0-2.24-1.9-4.06-4.23-4.06s-4.23,1.82-4.23,4.06
		c0,0.99,0.37,1.93,1.03,2.67l0.38,0.41h-4.06c-0.86,0-1.68,0.33-2.29,0.92c-0.61,0.6-0.95,1.38-0.95,2.2
		c0,1.72,1.45,3.12,3.24,3.12h4.93l-0.14,0.34c-0.12,0.29-0.18,0.6-0.18,0.92v29.25c0,0.25,0.03,0.48,0.1,0.7l0.11,0.35l-0.38-0.03
		c-9.38-0.73-17.23-5.67-19.99-12.6l-0.14-0.36l3.3,0.18l-2.87-4.85L400.61,1165.47z"/>
</g>
<g>
	<ellipse fill="#9C9B9B" cx="525.21" cy="1192.54" rx="17.52" ry="16.85"/>
	<path fill="#1D1D1B" d="M525.21,1209.64c-9.81,0-17.78-7.67-17.78-17.1c0-9.43,7.98-17.1,17.78-17.1s17.78,7.67,17.78,17.1
		C542.99,1201.97,535.01,1209.64,525.21,1209.64z M525.21,1175.94c-9.52,0-17.26,7.45-17.26,16.6c0,9.15,7.74,16.6,17.26,16.6
		s17.26-7.45,17.26-16.6C542.47,1183.38,534.73,1175.94,525.21,1175.94z"/>
</g>
<g>
	<ellipse fill="#9C9B9B" cx="476.75" cy="1192.54" rx="17.52" ry="16.85"/>
	<path fill="#1D1D1B" d="M476.75,1209.64c-9.81,0-17.78-7.67-17.78-17.1c0-9.43,7.98-17.1,17.78-17.1s17.78,7.67,17.78,17.1
		C494.53,1201.97,486.56,1209.64,476.75,1209.64z M476.75,1175.94c-9.52,0-17.26,7.45-17.26,16.6c0,9.15,7.74,16.6,17.26,16.6
		s17.26-7.45,17.26-16.6C494.01,1183.38,486.27,1175.94,476.75,1175.94z"/>
</g>
<g>
	<ellipse fill="#9C9B9B" cx="570.65" cy="1192.54" rx="17.52" ry="16.85"/>
	<path fill="#1D1D1B" d="M570.65,1209.64c-9.81,0-17.78-7.67-17.78-17.1c0-9.43,7.98-17.1,17.78-17.1c9.81,0,17.78,7.67,17.78,17.1
		C588.43,1201.97,580.46,1209.64,570.65,1209.64z M570.65,1175.94c-9.52,0-17.26,7.45-17.26,16.6c0,9.15,7.74,16.6,17.26,16.6
		c9.52,0,17.26-7.45,17.26-16.6C587.91,1183.38,580.17,1175.94,570.65,1175.94z"/>
</g>
<g>
	<ellipse fill="#9C9B9B" cx="476.75" cy="1192.54" rx="9.58" ry="9.21"/>
	<path fill="#1D1D1B" d="M476.75,1202c-5.43,0-9.84-4.24-9.84-9.46c0-5.22,4.41-9.46,9.84-9.46c5.43,0,9.84,4.24,9.84,9.46
		C486.59,1197.75,482.18,1202,476.75,1202z M476.75,1183.57c-5.14,0-9.32,4.02-9.32,8.96c0,4.94,4.18,8.96,9.32,8.96
		s9.32-4.02,9.32-8.96C486.07,1187.6,481.89,1183.57,476.75,1183.57z"/>
</g>
<g>
	<ellipse fill="#9C9B9B" cx="525.21" cy="1192.54" rx="9.58" ry="9.21"/>
	<path fill="#1D1D1B" d="M525.21,1202c-5.43,0-9.84-4.24-9.84-9.46c0-5.22,4.41-9.46,9.84-9.46c5.43,0,9.84,4.24,9.84,9.46
		C535.05,1197.75,530.63,1202,525.21,1202z M525.21,1183.57c-5.14,0-9.32,4.02-9.32,8.96c0,4.94,4.18,8.96,9.32,8.96
		s9.32-4.02,9.32-8.96C534.53,1187.6,530.35,1183.57,525.21,1183.57z"/>
</g>
<g>
	<ellipse fill="#9C9B9B" cx="570.65" cy="1192.8" rx="9.58" ry="9.21"/>
	<path fill="#1D1D1B" d="M570.65,1202.26c-5.43,0-9.84-4.24-9.84-9.46c0-5.22,4.41-9.46,9.84-9.46c5.43,0,9.84,4.24,9.84,9.46
		C580.49,1198.01,576.08,1202.26,570.65,1202.26z M570.65,1183.84c-5.14,0-9.32,4.02-9.32,8.96c0,4.94,4.18,8.96,9.32,8.96
		c5.14,0,9.32-4.02,9.32-8.96C579.97,1187.86,575.79,1183.84,570.65,1183.84z"/>
</g>
<g>
	<path fill="#754C24" d="M520.62,1165.48c-2.58,0-4.67-2.01-4.67-4.49V929.44c0-2.48,2.09-4.49,4.67-4.49s4.67,2.01,4.67,4.49
		v231.55C525.29,1163.46,523.19,1165.48,520.62,1165.48z"/>
	<g>
		<path d="M520.62,925.2c2.43,0,4.41,1.9,4.41,4.24v231.55c0,2.34-1.98,4.24-4.41,4.24s-4.41-1.9-4.41-4.24V929.44
			C516.21,927.1,518.19,925.2,520.62,925.2 M520.62,924.7L520.62,924.7c-2.71,0-4.93,2.13-4.93,4.74v231.55
			c0,2.61,2.22,4.74,4.93,4.74l0,0c2.71,0,4.93-2.13,4.93-4.74V929.44C525.55,926.83,523.33,924.7,520.62,924.7L520.62,924.7z"/>
	</g>
</g>
<g>
	<path fill="#754C24" d="M464.82,960.25c-2.27,0-4.12-1.78-4.12-3.96s1.85-3.96,4.12-3.96h111.11c2.27,0,4.12,1.78,4.12,3.96
		s-1.85,3.96-4.12,3.96H464.82z"/>
	<g>
		<path d="M575.93,952.58c2.13,0,3.86,1.67,3.86,3.71c0,2.05-1.73,3.71-3.86,3.71H464.82c-2.13,0-3.86-1.67-3.86-3.71
			c0-2.05,1.73-3.71,3.86-3.71H575.93 M575.93,952.08H464.82c-2.41,0-4.38,1.9-4.38,4.21s1.97,4.21,4.38,4.21h111.11
			c2.41,0,4.38-1.9,4.38-4.21S578.34,952.08,575.93,952.08L575.93,952.08z"/>
	</g>
</g>
<g>
	<path fill="#754C24" d="M430.76,1051.33c-2.5,0-4.53-1.96-4.53-4.36s2.03-4.36,4.53-4.36h170c2.5,0,4.53,1.96,4.53,4.36
		s-2.03,4.36-4.53,4.36H430.76z"/>
	<g>
		<path d="M600.77,1042.86c2.35,0,4.27,1.84,4.27,4.11c0,2.27-1.92,4.11-4.27,4.11h-170c-2.35,0-4.27-1.84-4.27-4.11
			c0-2.27,1.92-4.11,4.27-4.11H600.77 M600.77,1042.36h-170c-2.63,0-4.79,2.07-4.79,4.61s2.15,4.61,4.79,4.61h170
			c2.63,0,4.79-2.07,4.79-4.61S603.4,1042.36,600.77,1042.36L600.77,1042.36z"/>
	</g>
</g>
<g>
	<path d="M589.25,1051.62v66.78c-12.88-3.59-42.82-6.1-77.7-6.1c-29.88,0-56.13,1.84-71.14,4.62v-65.34
		c14.22,3.16,42.25,5.31,74.51,5.31C547.04,1056.89,574.98,1054.75,589.25,1051.62z"/>
	<g>
		<path fill="#020202" d="M588.47,1051.62c0,2.22,0,4.45,0,6.67c0,5.31,0,10.63,0,15.94c0,6.43,0,12.85,0,19.28
			c0,5.55,0,11.11,0,16.66c0,1.84,0,3.67,0,5.51c0,0.84-0.12,1.77,0,2.6c0.01,0.04,0,0.08,0,0.12c0.33-0.24,0.66-0.48,0.99-0.73
			c-6.59-1.83-13.5-2.67-20.3-3.43c-9.98-1.11-20-1.74-30.04-2.15c-12.2-0.5-24.42-0.65-36.63-0.49
			c-11.35,0.15-22.69,0.55-34.01,1.35c-8.63,0.61-17.28,1.41-25.82,2.82c-0.83,0.14-1.65,0.28-2.47,0.43
			c0.33,0.24,0.66,0.48,0.99,0.73c0-2.18,0-4.35,0-6.53c0-5.19,0-10.39,0-15.59c0-6.28,0-12.56,0-18.85c0-5.45,0-10.9,0-16.35
			c0-1.78,0-3.57,0-5.35c0-0.82,0.13-1.75,0-2.56c-0.01-0.04,0-0.08,0-0.11c-0.33,0.24-0.66,0.48-0.99,0.73
			c7.37,1.63,14.94,2.48,22.46,3.18c10.52,0.99,21.09,1.54,31.66,1.85c12.19,0.37,24.39,0.4,36.59,0.12
			c10.87-0.25,21.74-0.74,32.58-1.65c7.95-0.67,15.94-1.49,23.77-3.02c0.73-0.15,1.47-0.3,2.2-0.46c0.98-0.22,0.57-1.66-0.42-1.45
			c-7.34,1.61-14.87,2.45-22.35,3.14c-10.47,0.97-20.97,1.51-31.48,1.82c-12.15,0.36-24.3,0.39-36.44,0.11
			c-10.8-0.25-21.59-0.74-32.35-1.64c-7.9-0.66-15.83-1.48-23.61-3.01c-0.73-0.15-1.46-0.3-2.19-0.46
			c-0.49-0.11-0.99,0.22-0.99,0.73c0,2.18,0,4.35,0,6.53c0,5.19,0,10.39,0,15.59c0,6.28,0,12.56,0,18.85c0,5.45,0,10.9,0,16.35
			c0,2.63-0.11,5.29,0,7.92c0,0.04,0,0.08,0,0.11c0,0.52,0.49,0.82,0.99,0.73c8.08-1.49,16.29-2.3,24.49-2.95
			c11.01-0.87,22.07-1.32,33.11-1.53c12.16-0.23,24.33-0.16,36.49,0.26c10.37,0.35,20.74,0.93,31.07,1.96
			c7.17,0.72,14.42,1.56,21.42,3.25c0.62,0.15,1.23,0.31,1.85,0.48c0.49,0.14,0.99-0.24,0.99-0.73c0-2.22,0-4.45,0-6.67
			c0-5.31,0-10.63,0-15.94c0-6.43,0-12.85,0-19.28c0-5.55,0-11.11,0-16.66c0-2.7,0.11-5.41,0-8.11c0-0.04,0-0.08,0-0.12
			C590.03,1050.65,588.47,1050.65,588.47,1051.62z"/>
	</g>
</g>
<g>
	<path d="M580.65,957.82v88.95c-10.43-4.78-34.69-8.12-62.95-8.12c-24.2,0-45.47,2.46-57.64,6.16v-87.04
		c11.52,4.21,34.23,7.07,60.37,7.07C546.45,964.83,569.08,962,580.65,957.82z"/>
	<g>
		<path fill="#020202" d="M579.87,957.82c0,0.79,0,1.58,0,2.37c0,2.16,0,4.33,0,6.49c0,3.19,0,6.37,0,9.56c0,3.89,0,7.77,0,11.66
			c0,4.28,0,8.56,0,12.84c0,4.3,0,8.6,0,12.89c0,4.01,0,8.02,0,12.02c0,3.39,0,6.78,0,10.16c0,2.45,0,4.9,0,7.35
			c0,1.14-0.11,2.33,0,3.46c0.01,0.05,0,0.1,0,0.15c0.39-0.22,0.78-0.43,1.18-0.65c-5.15-2.35-10.86-3.58-16.43-4.6
			c-8.08-1.48-16.29-2.34-24.49-2.89c-9.82-0.67-19.68-0.86-29.52-0.67c-9.25,0.19-18.51,0.72-27.7,1.78
			c-7.08,0.82-14.18,1.89-21.05,3.75c-0.67,0.19-1.34,0.38-2.01,0.58c0.33,0.24,0.66,0.48,0.99,0.73c0-0.78,0-1.55,0-2.33
			c0-2.11,0-4.23,0-6.34c0-3.11,0-6.21,0-9.33c0-3.81,0-7.62,0-11.43c0-4.17,0-8.35,0-12.52c0-4.21,0-8.43,0-12.64
			c0-3.93,0-7.86,0-11.79c0-3.31,0-6.62,0-9.92c0-2.39,0-4.78,0-7.18c0-1.12,0.11-2.29,0-3.4c-0.01-0.05,0-0.1,0-0.15
			c-0.33,0.24-0.66,0.48-0.99,0.73c5.85,2.13,12.09,3.3,18.25,4.24c8.48,1.3,17.04,2.04,25.61,2.46c9.89,0.49,19.8,0.53,29.69,0.16
			c8.81-0.33,17.62-1,26.35-2.19c6.51-0.89,13.06-2.01,19.31-4.01c0.6-0.19,1.19-0.4,1.79-0.61c0.93-0.34,0.53-1.79-0.42-1.45
			c-5.82,2.1-12.01,3.26-18.14,4.19c-8.45,1.29-17,2.01-25.54,2.42c-9.8,0.47-19.64,0.51-29.45,0.14
			c-8.77-0.33-17.54-0.98-26.22-2.19c-6.42-0.89-12.89-2.01-19.05-4c-0.59-0.19-1.19-0.4-1.77-0.61c-0.48-0.18-0.99,0.28-0.99,0.73
			c0,0.78,0,1.55,0,2.33c0,2.11,0,4.23,0,6.34c0,3.11,0,6.21,0,9.33c0,3.81,0,7.62,0,11.43c0,4.17,0,8.35,0,12.52
			c0,4.21,0,8.43,0,12.64c0,3.93,0,7.86,0,11.79c0,3.31,0,6.62,0,9.92c0,2.39,0,4.78,0,7.18c0,1.13-0.04,2.27,0,3.4
			c0,0.05,0,0.1,0,0.15c0,0.47,0.5,0.87,0.99,0.73c6.43-1.95,13.14-3.07,19.81-3.93c8.85-1.15,17.77-1.75,26.69-2.03
			c9.88-0.31,19.78-0.21,29.65,0.34c8.38,0.47,16.76,1.23,25.03,2.59c5.87,0.96,11.86,2.13,17.39,4.32c0.48,0.19,0.95,0.4,1.42,0.61
			c0.52,0.24,1.18-0.04,1.18-0.65c0-0.79,0-1.58,0-2.37c0-2.16,0-4.33,0-6.49c0-3.19,0-6.37,0-9.56c0-3.89,0-7.77,0-11.66
			c0-4.28,0-8.56,0-12.84c0-4.3,0-8.6,0-12.89c0-4.01,0-8.02,0-12.02c0-3.39,0-6.78,0-10.16c0-2.45,0-4.9,0-7.35
			c0-1.15,0.04-2.31,0-3.46c0-0.05,0-0.1,0-0.15C581.43,956.85,579.87,956.85,579.87,957.82z"/>
	</g>
</g>
<path fill="#FFFFFF" d="M520.37,971.16c-8.09,0-14.65,5.44-14.65,12.15c0,4.37,2.78,8.2,6.95,10.34v11.65h3.48V997h2.48v8.31h3.48
	V997h2.48v8.31h2.98v-11.41c4.45-2.09,7.45-6.04,7.45-10.58C535.02,976.6,528.46,971.16,520.37,971.16z M514.91,984.7
	c-2.88,0-5.21-1.45-5.21-3.23s2.33-3.23,5.21-3.23s5.21,1.45,5.21,3.23C520.12,983.25,517.79,984.7,514.91,984.7z M527.82,984.7
	c-2.88,0-5.21-1.45-5.21-3.23s2.33-3.23,5.21-3.23s5.21,1.45,5.21,3.23C533.03,983.25,530.7,984.7,527.82,984.7z"/>
<path fill="#FFFFFF" d="M540.5,1028.52c-1.21,1.03-3.54,1.25-5.2,0.5c-1.6-0.73-1.99-2.1-0.93-3.11c-0.15-0.05-0.29-0.11-0.43-0.17
	l-39.27-17.81c-0.14-0.07-0.27-0.13-0.39-0.21c-1.24,0.94-3.47,1.12-5.07,0.4c-1.66-0.75-2.02-2.2-0.81-3.22
	c1.21-1.03,3.54-1.25,5.2-0.5c0.07,0.03,0.13,0.06,0.19,0.1l0.02-0.02c-0.07-0.03-0.14-0.05-0.21-0.09
	c-1.66-0.75-2.02-2.2-0.81-3.22c1.21-1.03,3.54-1.25,5.2-0.5c1.6,0.73,1.99,2.1,0.93,3.11c0.15,0.05,0.29,0.11,0.43,0.17
	l39.27,17.81c0.14,0.07,0.27,0.13,0.39,0.21c1.24-0.94,3.47-1.12,5.07-0.4c1.66,0.75,2.02,2.2,0.81,3.22
	c-1.21,1.03-3.54,1.25-5.2,0.5c-0.07-0.03-0.13-0.06-0.19-0.1l-0.02,0.02c0.07,0.03,0.14,0.05,0.21,0.09
	C541.35,1026.05,541.71,1027.49,540.5,1028.52z"/>
<path fill="#FFFFFF" d="M552.83,1007.46c0.97,1.12,0.29,2.52-1.53,3.12c-1.75,0.58-3.91,0.21-4.93-0.83
	c-0.14,0.06-0.28,0.12-0.43,0.17l-42.92,14.22c-0.15,0.05-0.31,0.1-0.46,0.13c0.83,1.1,0.13,2.42-1.62,3
	c-1.81,0.6-4.07,0.18-5.04-0.95s-0.29-2.52,1.53-3.12c0.07-0.03,0.15-0.05,0.22-0.07l-0.02-0.02c-0.07,0.03-0.14,0.06-0.21,0.08
	c-1.81,0.6-4.07,0.18-5.04-0.95c-0.97-1.12-0.29-2.52,1.53-3.12c1.75-0.58,3.91-0.21,4.93,0.83c0.14-0.06,0.28-0.12,0.43-0.17
	l42.92-14.22c0.15-0.05,0.31-0.1,0.46-0.13c-0.83-1.1-0.13-2.42,1.62-3c1.81-0.6,4.07-0.18,5.04,0.95c0.97,1.12,0.29,2.52-1.53,3.12
	c-0.07,0.03-0.15,0.05-0.22,0.07l0.02,0.02c0.07-0.03,0.14-0.06,0.21-0.08C549.6,1005.91,551.86,1006.33,552.83,1007.46z"/>
<g>
	<ellipse fill="#754C24" cx="520.69" cy="931.81" rx="8.91" ry="8.57"/>
	<g>
		<path d="M520.69,923.49c4.77,0,8.65,3.73,8.65,8.32s-3.88,8.32-8.65,8.32c-4.77,0-8.65-3.73-8.65-8.32
			S515.92,923.49,520.69,923.49 M520.69,922.99c-5.06,0-9.17,3.95-9.17,8.82c0,4.87,4.11,8.82,9.17,8.82c5.06,0,9.17-3.95,9.17-8.82
			C529.86,926.94,525.75,922.99,520.69,922.99L520.69,922.99z"/>
	</g>
</g>
<g>
	<rect x="536.67" y="1149.85" fill="#1D1D1B" width="19.19" height="3.11"/>
	<path fill="#1D1D1B" d="M556.12,1153.21h-19.71v-3.61h19.71V1153.21z M536.93,1152.71h18.67v-2.61h-18.67V1152.71z"/>
</g>
<g>
	<path fill="#925F36" d="M556.48,1147.03v11.58c0,1.68-0.53,3.24-1.44,4.58c-0.42,0.62-0.92,1.18-1.49,1.68
		c-1.7,0.57-4.54,0.94-7.76,0.94s-6.06-0.38-7.76-0.94c-0.57-0.5-1.07-1.07-1.49-1.68c-0.91-1.34-1.44-2.9-1.44-4.58v-11.58
		c0-1.59,0.47-3.08,1.3-4.37l0,0c0.27-0.42,0.57-0.82,0.91-1.19l0,0c1.54-0.73,4.76-1.23,8.48-1.23c3.72,0,6.94,0.5,8.48,1.23l0,0
		c0.34,0.37,0.65,0.77,0.91,1.19l0,0C556.01,1143.95,556.48,1145.45,556.48,1147.03z"/>
	<path fill="#1D1D1B" d="M545.8,1166.07c-3.11,0-6.05-0.36-7.84-0.95l-0.09-0.05c-0.59-0.52-1.11-1.1-1.53-1.73
		c-0.97-1.42-1.48-3.05-1.48-4.72v-11.58c0-1.57,0.46-3.13,1.33-4.5c0.28-0.44,0.6-0.85,0.94-1.22l0.08-0.06
		c1.63-0.77,4.93-1.25,8.59-1.25s6.96,0.48,8.59,1.25l0.08,0.06c0.36,0.39,0.67,0.8,0.94,1.22c0.87,1.36,1.33,2.91,1.33,4.5v11.58
		c0,1.67-0.51,3.3-1.48,4.72c-0.44,0.63-0.95,1.22-1.53,1.73l-0.09,0.05C551.86,1165.71,548.93,1166.07,545.8,1166.07z
		 M538.17,1164.66c1.75,0.57,4.59,0.91,7.62,0.91c3.04,0,5.89-0.34,7.62-0.91c0.53-0.48,1.01-1.01,1.41-1.6
		c0.91-1.34,1.39-2.87,1.39-4.44v-11.58c0-1.49-0.43-2.96-1.26-4.24c-0.24-0.38-0.53-0.76-0.85-1.11c-1.56-0.72-4.81-1.18-8.32-1.18
		c-3.5,0-6.76,0.46-8.32,1.18c-0.31,0.34-0.59,0.72-0.85,1.12c-0.82,1.29-1.26,2.76-1.26,4.24v11.58c0,1.57,0.48,3.1,1.39,4.44
		C537.15,1163.63,537.63,1164.17,538.17,1164.66z"/>
</g>
<g>
	<path fill="#925F36" d="M555.24,1163.62c0,0.47-0.62,0.89-1.68,1.25c-1.7,0.57-4.54,0.94-7.76,0.94s-6.06-0.38-7.76-0.94
		c-1.06-0.36-1.68-0.79-1.68-1.25c0-0.15,0.06-0.3,0.19-0.44c0.87-1,4.68-1.75,9.25-1.75c4.56,0,8.38,0.75,9.25,1.75
		C555.17,1163.33,555.24,1163.47,555.24,1163.62z"/>
	<path fill="#1D1D1B" d="M545.8,1166.06c-3.11,0-6.05-0.36-7.84-0.95c-1.23-0.41-1.86-0.91-1.86-1.48c0-0.21,0.08-0.41,0.25-0.6
		c0.94-1.08,4.83-1.84,9.45-1.84c4.62,0,8.51,0.76,9.45,1.84c0.17,0.18,0.26,0.39,0.26,0.6c0,0.57-0.62,1.07-1.86,1.48
		C551.86,1165.7,548.92,1166.06,545.8,1166.06z M545.79,1161.69c-4.93,0-8.34,0.86-9.05,1.66c-0.09,0.1-0.13,0.19-0.13,0.27
		c0,0.32,0.56,0.69,1.51,1.01c1.75,0.58,4.62,0.93,7.67,0.93c3.07,0,5.94-0.35,7.67-0.93c0.94-0.32,1.51-0.69,1.51-1.01
		c0-0.08-0.04-0.17-0.13-0.27C554.14,1162.54,550.73,1161.69,545.79,1161.69z"/>
</g>
<g>
	<rect x="535.14" y="1155.56" fill="#1D1D1B" width="21.41" height="3.37"/>
	<path fill="#1D1D1B" d="M556.81,1159.18h-21.93v-3.87h21.93V1159.18z M535.4,1158.68h20.89v-2.87H535.4V1158.68z"/>
</g>
<g>
	<rect x="535.14" y="1145.95" fill="#1D1D1B" width="21.41" height="3.37"/>
	<path fill="#1D1D1B" d="M556.81,1149.58h-21.93v-3.87h21.93V1149.58z M535.4,1149.08h20.89v-2.87H535.4V1149.08z"/>
</g>
<g>
	<path fill="#925F36" d="M599.69,1111.98c-0.23-0.27-0.48-0.54-0.73-0.8c-0.08-0.09-0.17-0.17-0.26-0.25l0,0
		c-2.46-2.3-5.93-3.79-9.82-3.96c-0.25-0.01-0.5-0.02-0.76-0.02c-0.23,0-0.46,0.01-0.69,0.02c-0.04,0-0.07,0.01-0.1,0.01
		c-3.03,0.14-5.81,1.09-8.05,2.59c-0.41,0.28-0.81,0.58-1.18,0.89c-2.01,1.69-3.43,3.87-3.99,6.32c-0.1,0.44-0.17,0.89-0.21,1.35
		c-0.03,0.32-0.04,0.65-0.04,0.97c0,2.54,0.92,4.89,2.49,6.84c0.07,0.09,0.15,0.19,0.23,0.28c0.09,0.11,0.19,0.23,0.3,0.33
		c0.05,0.06,0.1,0.12,0.16,0.17c0.09,0.1,0.19,0.19,0.28,0.29c2.46,2.43,6.02,4.01,10.03,4.2c0.26,0.02,0.53,0.02,0.79,0.02
		c0.26,0,0.51-0.01,0.76-0.02c3.08-0.14,5.9-1.1,8.15-2.64c0.41-0.28,0.8-0.58,1.18-0.89c2.02-1.72,3.43-3.94,3.96-6.43
		c0.03-0.11,0.05-0.22,0.06-0.34c0.02-0.08,0.03-0.17,0.04-0.26c0.01-0.09,0.03-0.17,0.04-0.25c0.01-0.09,0.02-0.17,0.03-0.26
		c0.01-0.09,0.02-0.17,0.02-0.26c0.02-0.27,0.03-0.54,0.03-0.8C602.39,1116.43,601.39,1113.98,599.69,1111.98z M600.34,1119.67
		c-0.03,0.46-0.09,0.91-0.19,1.35c-0.46,2.07-1.63,3.92-3.29,5.35c-0.37,0.32-0.76,0.62-1.18,0.9c-1.89,1.27-4.24,2.07-6.8,2.2
		c-0.26,0.02-0.51,0.02-0.76,0.02c-0.27,0-0.53-0.01-0.79-0.02c-3.36-0.18-6.35-1.52-8.44-3.54c-0.35-0.34-0.67-0.7-0.96-1.07
		c-1.3-1.65-2.06-3.64-2.06-5.77c0-0.25,0.01-0.5,0.03-0.75c0.04-0.46,0.11-0.91,0.22-1.35c0.49-2.03,1.67-3.84,3.33-5.25
		c0.37-0.32,0.77-0.62,1.18-0.89c1.87-1.23,4.18-2.01,6.7-2.15c0.26-0.02,0.53-0.02,0.79-0.02c0.26,0,0.51,0.01,0.76,0.02
		c3.24,0.17,6.14,1.41,8.22,3.31c0.36,0.33,0.69,0.68,1,1.05c1.43,1.7,2.26,3.78,2.26,6.03
		C600.36,1119.28,600.36,1119.47,600.34,1119.67z"/>
	<path fill="#1D1D1B" d="M588.13,1131.46c-0.27,0-0.54-0.01-0.81-0.02c-3.97-0.18-7.6-1.7-10.2-4.27l-0.28-0.29
		c-0.06-0.06-0.12-0.12-0.17-0.18c-0.1-0.1-0.2-0.22-0.3-0.33c-0.08-0.09-0.16-0.19-0.23-0.28c-1.66-2.06-2.54-4.48-2.54-6.99
		c0-0.37,0.01-0.7,0.04-0.99c0.04-0.45,0.11-0.92,0.22-1.38c0.56-2.45,1.97-4.69,4.07-6.46c0.4-0.33,0.81-0.64,1.2-0.9
		c2.36-1.58,5.19-2.49,8.19-2.63c0.07,0,0.09-0.01,0.12-0.01c0.47-0.02,0.98-0.01,1.46,0.01c3.84,0.17,7.38,1.6,9.99,4.03
		c0.09,0.08,0.18,0.17,0.27,0.26c0.26,0.26,0.52,0.54,0.75,0.81l0,0c1.8,2.12,2.76,4.63,2.77,7.26c0,0.27-0.01,0.55-0.03,0.82
		c-0.01,0.09-0.01,0.18-0.02,0.27l-0.07,0.51c-0.01,0.09-0.03,0.18-0.04,0.27c-0.01,0.11-0.04,0.23-0.07,0.35
		c-0.53,2.49-1.92,4.76-4.04,6.56c-0.42,0.35-0.81,0.64-1.2,0.91c-2.38,1.62-5.25,2.55-8.29,2.69
		C588.64,1131.45,588.38,1131.46,588.13,1131.46z M588.12,1107.21c-0.23,0-0.45,0-0.68,0.01c-0.07,0-0.09,0.01-0.12,0.01
		c-2.89,0.13-5.62,1.01-7.9,2.54c-0.38,0.26-0.77,0.55-1.16,0.87c-2.02,1.7-3.37,3.84-3.91,6.18c-0.1,0.44-0.17,0.89-0.21,1.32
		c-0.03,0.28-0.04,0.59-0.04,0.95c0,2.4,0.84,4.72,2.43,6.69c0.07,0.09,0.15,0.18,0.22,0.27c0.09,0.11,0.18,0.22,0.28,0.32
		c0.06,0.07,0.11,0.12,0.16,0.17l0.29,0.29c2.51,2.48,6.01,3.94,9.85,4.12c0.51,0.03,1.03,0.02,1.53,0c2.94-0.13,5.72-1.03,8.01-2.6
		c0.37-0.25,0.75-0.54,1.16-0.88c2.03-1.73,3.37-3.9,3.88-6.29c0.03-0.11,0.04-0.21,0.06-0.32c0.02-0.09,0.03-0.17,0.04-0.25
		l0.07-0.51c0.01-0.08,0.01-0.16,0.02-0.24c0.02-0.26,0.03-0.53,0.03-0.79c-0.01-2.51-0.93-4.91-2.65-6.94l0,0
		c-0.22-0.26-0.46-0.52-0.72-0.78c-0.08-0.08-0.17-0.16-0.25-0.24c-2.51-2.35-5.94-3.73-9.65-3.9
		C588.62,1107.22,588.37,1107.21,588.12,1107.21z M588.12,1129.74c-0.27,0-0.54,0-0.81-0.02c-3.34-0.18-6.39-1.46-8.61-3.62
		c-0.35-0.34-0.68-0.71-0.99-1.1c-1.38-1.76-2.11-3.8-2.11-5.92c0-0.26,0.01-0.51,0.03-0.77c0.04-0.48,0.12-0.94,0.22-1.38
		c0.49-2.04,1.67-3.91,3.41-5.39c0.39-0.34,0.8-0.64,1.21-0.91c1.97-1.3,4.33-2.06,6.83-2.19c0.52-0.03,1.06-0.02,1.58,0
		c3.21,0.17,6.19,1.37,8.39,3.38c0.36,0.33,0.71,0.69,1.02,1.07c1.52,1.81,2.32,3.95,2.32,6.19c0.01,0.19,0,0.4-0.02,0.59
		c-0.03,0.48-0.1,0.95-0.2,1.39c-0.46,2.08-1.63,3.98-3.37,5.49c-0.39,0.34-0.79,0.64-1.2,0.92c-2.01,1.34-4.4,2.12-6.94,2.24
		C588.63,1129.73,588.37,1129.74,588.12,1129.74z M588.12,1108.93c-0.26,0-0.52,0-0.78,0.02c-2.4,0.13-4.67,0.86-6.57,2.11
		c-0.39,0.25-0.78,0.54-1.16,0.87c-1.65,1.41-2.78,3.18-3.24,5.12c-0.1,0.42-0.17,0.86-0.21,1.31c-0.02,0.24-0.03,0.49-0.03,0.73
		c0,2.01,0.69,3.95,2,5.62c0.29,0.37,0.6,0.72,0.94,1.04c2.12,2.07,5.06,3.3,8.27,3.47c0.5,0.03,1.01,0.03,1.52,0
		c2.44-0.12,4.74-0.87,6.67-2.16c0.39-0.26,0.78-0.55,1.15-0.88c1.66-1.44,2.77-3.24,3.21-5.22c0.09-0.42,0.16-0.86,0.19-1.31l0,0
		c0.01-0.18,0.02-0.37,0.01-0.55c0-2.13-0.76-4.16-2.21-5.88c-0.3-0.36-0.63-0.7-0.98-1.02c-2.11-1.93-4.97-3.08-8.05-3.24
		C588.62,1108.94,588.37,1108.93,588.12,1108.93z"/>
</g>
<g>
	<path fill="#925F36" d="M590.48,1119.59l-0.57,0.46c0.2,0.01,0.4,0.08,0.55,0.22l6.4,6.11c-0.37,0.32-0.76,0.62-1.18,0.9
		l-6.36-6.08c-0.14-0.13-0.2-0.3-0.2-0.46c0-0.01,0-0.03,0-0.04l-0.4,0.33c0.09,0.06,0.16,0.18,0.16,0.32v8.14
		c-0.26,0.02-0.51,0.02-0.76,0.02c-0.27,0-0.53-0.01-0.79-0.02v-8.14c0-0.15,0.07-0.27,0.18-0.33l-0.6-0.57
		c-0.05,0.11-0.14,0.21-0.24,0.28l-7.77,5.21c-0.35-0.34-0.67-0.7-0.96-1.07l7.79-5.23c0.07-0.05,0.15-0.09,0.23-0.11l-0.23-0.23
		c-0.14,0.07-0.3,0.1-0.46,0.08l-9.36-1.04c0.04-0.46,0.11-0.91,0.22-1.35l9.34,1.03c0.24,0.03,0.45,0.16,0.57,0.33l0.21-0.18
		c-0.07-0.04-0.14-0.08-0.2-0.14l-6.59-6.3c0.37-0.32,0.76-0.62,1.18-0.89l6.55,6.27c0.06,0.06,0.11,0.12,0.14,0.19l0.54-0.43h-0.2
		c-0.18,0-0.33-0.17-0.33-0.38v-7.8c0.26-0.02,0.53-0.02,0.79-0.02c0.26,0,0.51,0.01,0.76,0.02v7.8c0,0.21-0.15,0.38-0.33,0.38
		h-0.05l0.69,0.66c0.04-0.16,0.14-0.31,0.29-0.41l7.61-5.11c0.36,0.33,0.69,0.68,1,1.05l-7.67,5.15c-0.11,0.08-0.25,0.12-0.39,0.14
		l0.58,0.56c0.16-0.17,0.42-0.26,0.68-0.23l9.04,1c-0.03,0.46-0.09,0.91-0.19,1.35l-9.04-1
		C590.82,1119.99,590.58,1119.82,590.48,1119.59z"/>
	<path fill="#1D1D1B" d="M588.12,1129.75c-0.27,0-0.54-0.01-0.81-0.02l-0.24-0.01v-8.37c0-0.11,0.03-0.22,0.08-0.32l-0.21-0.2
		c-0.04,0.04-0.08,0.07-0.13,0.1l-7.95,5.34l-0.15-0.15c-0.35-0.34-0.68-0.71-0.99-1.1l-0.16-0.21l7.71-5.17c-0.01,0-0.03,0-0.04,0
		l-9.61-1.06l0.02-0.24c0.04-0.47,0.12-0.94,0.22-1.38l0.05-0.22l9.46,1.04l-6.32-6.04l0.21-0.18c0.39-0.34,0.8-0.64,1.21-0.91
		l0.18-0.12l6.44,6.16c-0.02-0.06-0.03-0.12-0.03-0.19v-8.03l0.24-0.01c0.52-0.03,1.06-0.02,1.58,0l0.25,0.01v8.04
		c0,0.18-0.07,0.34-0.18,0.45l0.17,0.16c0.06-0.07,0.13-0.14,0.21-0.19l7.78-5.23l0.15,0.14c0.36,0.33,0.7,0.69,1.02,1.07l0.18,0.21
		l-7.9,5.3c-0.02,0.01-0.04,0.02-0.06,0.03l0.12,0.12c0.2-0.12,0.44-0.17,0.69-0.15l9.29,1.03l-0.02,0.24
		c-0.03,0.48-0.1,0.95-0.2,1.39l-0.05,0.22l-9.28-1.03c-0.12-0.01-0.23-0.05-0.34-0.1l6.5,6.21l-0.2,0.18
		c-0.39,0.34-0.8,0.65-1.2,0.92l-0.18,0.12l-6.51-6.22v8.34l-0.24,0.01C588.63,1129.74,588.37,1129.75,588.12,1129.75z
		 M587.58,1129.24c0.34,0.01,0.68,0.01,1.03,0v-7.9c0-0.06-0.03-0.1-0.05-0.12l-0.27-0.19l0.93-0.76h-0.01l1.34-1.08l-1.09-1.04
		l0.54-0.06c0.1-0.01,0.19-0.04,0.27-0.09l7.44-4.99c-0.21-0.23-0.42-0.46-0.65-0.67l-7.43,4.99c-0.1,0.07-0.16,0.16-0.19,0.26
		l-0.1,0.45l-1.16-1.11l-0.97,0.78l-0.14-0.3c-0.02-0.04-0.05-0.07-0.09-0.11l-6.4-6.12c-0.26,0.18-0.52,0.37-0.77,0.57l6.39,6.11
		c0.04,0.03,0.08,0.06,0.13,0.09l0.35,0.17l-0.73,0.6l-0.16-0.23c-0.08-0.12-0.23-0.2-0.38-0.22l-9.1-1
		c-0.06,0.28-0.1,0.56-0.14,0.85l9.11,1.01c0.11,0.01,0.22,0,0.31-0.05l0.17-0.08l0.69,0.66l-0.45,0.11
		c-0.05,0.01-0.1,0.03-0.15,0.07l-7.57,5.08c0.2,0.24,0.41,0.47,0.62,0.69l7.59-5.09c0.07-0.05,0.12-0.11,0.16-0.18l0.15-0.33
		l1.1,1.05l-0.29,0.17c-0.02,0.01-0.05,0.05-0.05,0.11V1129.24z M589.37,1120.28v0.41c0,0.14,0.04,0.24,0.13,0.32l6.2,5.93
		c0.26-0.18,0.51-0.37,0.77-0.58l-6.2-5.92c-0.1-0.09-0.23-0.14-0.37-0.15L589.37,1120.28z M590.6,1119.24l0.12,0.25
		c0.07,0.16,0.23,0.27,0.42,0.29l8.8,0.97c0.05-0.28,0.09-0.56,0.12-0.86l-8.79-0.97c-0.17-0.02-0.35,0.04-0.46,0.15l-0.18,0.19
		L590.6,1119.24z M587.87,1116.63h0.63c0.07,0,0.11-0.05,0.11-0.12v-7.56c-0.34-0.01-0.69-0.01-1.03,0v7.56
		c0,0.08,0.05,0.12,0.07,0.12H587.87z"/>
</g>
<g>
	<path fill="#925F36" d="M574.1,1116.77c-0.1,0.44-0.17,0.89-0.21,1.35l-3.33-0.37c-0.23,0.37-0.61,0.62-1.04,0.62
		c-0.71,0-1.28-0.66-1.28-1.46s0.57-1.46,1.28-1.46c0.55,0,1.01,0.4,1.2,0.95L574.1,1116.77z"/>
	<path fill="#1D1D1B" d="M569.52,1118.61c-0.85,0-1.54-0.77-1.54-1.71c0-0.94,0.69-1.71,1.54-1.71c0.59,0,1.13,0.38,1.39,0.97
		l3.51,0.39l-0.06,0.27c-0.1,0.44-0.17,0.89-0.21,1.32l-0.02,0.26l-3.44-0.38C570.39,1118.39,569.96,1118.61,569.52,1118.61z
		 M569.52,1115.69c-0.56,0-1.02,0.54-1.02,1.21c0,0.67,0.46,1.21,1.02,1.21c0.32,0,0.62-0.19,0.82-0.5l0.09-0.14l3.23,0.36
		c0.03-0.28,0.08-0.57,0.13-0.86l-3.27-0.36l-0.05-0.15C570.31,1116,569.93,1115.69,569.52,1115.69z"/>
</g>
<g>
	<path fill="#925F36" d="M589.41,1136.46c0,0.81-0.57,1.46-1.28,1.46c-0.71,0-1.28-0.66-1.28-1.46c0-0.46,0.19-0.87,0.47-1.14
		c0-0.02,0-0.03,0-0.05v-4.08c0.26,0.01,0.53,0.02,0.79,0.02c0.26,0,0.51-0.01,0.76-0.02v4.07
		C589.2,1135.53,589.41,1135.97,589.41,1136.46z"/>
	<path fill="#1D1D1B" d="M588.13,1138.17c-0.85,0-1.54-0.77-1.54-1.71c0-0.47,0.17-0.91,0.47-1.24v-4.28l0.27,0.01
		c0.5,0.02,1.03,0.03,1.53,0l0.27-0.01v4.22c0.34,0.32,0.54,0.8,0.54,1.3C589.67,1137.4,588.98,1138.17,588.13,1138.17z
		 M587.58,1131.46v3.92l-0.08,0.12c-0.25,0.24-0.4,0.59-0.4,0.96c0,0.67,0.46,1.21,1.02,1.21c0.56,0,1.02-0.54,1.02-1.21
		c0-0.4-0.17-0.77-0.44-0.99l-0.09-0.07v-3.93C588.27,1131.47,587.93,1131.47,587.58,1131.46z"/>
</g>
<g>
	<path fill="#925F36" d="M601.93,1131.06c0,0.81-0.57,1.46-1.28,1.46c-0.71,0-1.28-0.66-1.28-1.46c0-0.09,0.01-0.17,0.02-0.25
		l-2.36-2.26c0.41-0.28,0.8-0.58,1.18-0.89l2.09,2c0.11-0.04,0.23-0.06,0.36-0.06C601.36,1129.6,601.93,1130.25,601.93,1131.06z"/>
	<path fill="#1D1D1B" d="M600.65,1132.78c-0.85,0-1.54-0.77-1.54-1.71c0-0.05,0-0.1,0.01-0.15l-2.49-2.38l0.25-0.17
		c0.41-0.28,0.79-0.57,1.16-0.87l0.18-0.15l2.15,2.06c0.1-0.02,0.19-0.04,0.3-0.03c0.37,0,0.72,0.15,1,0.41
		c0.34,0.32,0.53,0.8,0.53,1.3C602.19,1132.01,601.5,1132.78,600.65,1132.78z M597.43,1128.59l2.24,2.14l-0.02,0.12
		c-0.01,0.07-0.01,0.14-0.01,0.21c0,0.67,0.46,1.21,1.02,1.21s1.02-0.54,1.02-1.21c0-0.37-0.14-0.71-0.38-0.94
		c-0.18-0.17-0.4-0.26-0.63-0.26c-0.12-0.01-0.2,0.01-0.28,0.04l-0.16,0.05l-2.03-1.95C597.94,1128.21,597.69,1128.4,597.43,1128.59
		z"/>
</g>
<g>
	<path fill="#925F36" d="M587.92,1117.12c0,0.73-0.52,1.32-1.16,1.32c-0.46,0-0.86-0.31-1.05-0.75l-3.34-0.37
		c0.08-0.4,0.15-0.81,0.17-1.22l3.22,0.36c0.2-0.39,0.57-0.65,1-0.65C587.4,1115.8,587.92,1116.38,587.92,1117.12z"/>
	<path fill="#1D1D1B" d="M586.76,1118.67c-0.5,0-0.96-0.3-1.2-0.77l-3.47-0.38l0.05-0.24c0.09-0.41,0.14-0.81,0.17-1.19l0.02-0.24
		l3.31,0.37c0.26-0.4,0.67-0.64,1.13-0.64c0.34,0.01,0.66,0.13,0.91,0.37c0.31,0.29,0.48,0.72,0.48,1.17
		C588.15,1117.97,587.53,1118.67,586.76,1118.67z M582.65,1117.12l3.23,0.36l0.05,0.12c0.16,0.38,0.48,0.61,0.83,0.61
		c0.51,0,0.92-0.49,0.92-1.1c0-0.33-0.13-0.64-0.34-0.85c-0.16-0.16-0.36-0.24-0.57-0.24c0,0,0,0-0.01,0c-0.32,0-0.62,0.2-0.79,0.53
		l-0.07,0.14l-3.14-0.35C582.73,1116.6,582.7,1116.86,582.65,1117.12z"/>
</g>
<g>
	<path fill="#925F36" d="M604.49,1108.89c0,0.81-0.57,1.46-1.28,1.46c-0.27,0-0.51-0.09-0.71-0.25c-0.01,0.01-0.02,0.01-0.03,0.02
		l-2.78,1.87c-0.31-0.37-0.65-0.71-1-1.05l2.84-1.91c0.12-0.08,0.26-0.13,0.41-0.14v-0.01c0-0.81,0.57-1.46,1.28-1.46
		C603.92,1107.43,604.49,1108.08,604.49,1108.89z"/>
	<path fill="#1D1D1B" d="M599.64,1112.32l-0.15-0.18c-0.29-0.34-0.62-0.68-0.98-1.03l-0.22-0.21l3.09-2.08
		c0.09-0.06,0.2-0.11,0.31-0.14c0.09-0.85,0.74-1.51,1.53-1.51c0.85,0,1.54,0.77,1.54,1.71s-0.69,1.71-1.54,1.71
		c-0.25,0-0.5-0.07-0.71-0.19L599.64,1112.32z M599.09,1110.97c0.23,0.23,0.44,0.45,0.64,0.67l2.79-1.85l0.13,0.1
		c0.16,0.13,0.35,0.19,0.55,0.19c0.56,0,1.02-0.54,1.02-1.21c0-0.67-0.46-1.21-1.01-1.21c-0.56,0-1.02,0.54-1.02,1.21v0.23
		l-0.24,0.03c-0.1,0.01-0.2,0.04-0.28,0.09L599.09,1110.97z"/>
</g>
<g>
	<path fill="#925F36" d="M589.41,1101.7c0,0.49-0.21,0.92-0.54,1.19v4.09c-0.25-0.01-0.5-0.02-0.76-0.02
		c-0.27,0-0.53,0.01-0.79,0.02v-4.15c-0.29-0.27-0.47-0.68-0.47-1.14c0-0.81,0.57-1.46,1.28-1.46
		C588.84,1100.23,589.41,1100.89,589.41,1101.7z"/>
	<path fill="#1D1D1B" d="M587.06,1107.24v-4.31c-0.3-0.32-0.47-0.77-0.47-1.24c0-0.94,0.69-1.71,1.54-1.71s1.54,0.77,1.54,1.72
		c0,0.5-0.19,0.97-0.54,1.3v4.24l-0.27-0.01c-0.5-0.02-1.02-0.02-1.52,0L587.06,1107.24z M588.13,1100.48
		c-0.56,0-1.02,0.54-1.02,1.21c0,0.38,0.14,0.72,0.39,0.96l0.08,0.07v3.99c0.34-0.01,0.69-0.01,1.03,0v-3.94l0.09-0.08
		c0.28-0.23,0.44-0.6,0.44-1C589.15,1101.03,588.69,1100.48,588.13,1100.48z"/>
</g>
<g>
	<path fill="#925F36" d="M579.27,1109.56c-0.41,0.28-0.81,0.57-1.18,0.89l-1.78-1.7c-0.08,0.02-0.17,0.03-0.25,0.03
		c-0.71,0-1.28-0.66-1.28-1.46c0-0.81,0.57-1.46,1.28-1.46c0.71,0,1.28,0.66,1.28,1.46c0,0.13-0.02,0.25-0.04,0.37l0,0
		L579.27,1109.56z"/>
	<path fill="#1D1D1B" d="M578.08,1110.79l-1.85-1.77c-0.05,0.01-0.11,0.01-0.16,0.01c-0.85,0-1.54-0.77-1.54-1.71
		s0.69-1.71,1.54-1.71s1.54,0.77,1.54,1.71c0,0.09-0.01,0.19-0.02,0.28l2.1,2l-0.26,0.17c-0.41,0.28-0.8,0.57-1.16,0.87
		L578.08,1110.79z M576.39,1108.47l1.72,1.64c0.24-0.2,0.5-0.39,0.77-0.58l-1.85-1.77l0.03-0.13c0.02-0.1,0.04-0.21,0.04-0.31
		c0-0.67-0.46-1.21-1.02-1.21c-0.56,0-1.02,0.54-1.02,1.21c0,0.67,0.46,1.21,1.02,1.21c0.06,0,0.13-0.01,0.18-0.02L576.39,1108.47z"
		/>
</g>
<g>
	<path fill="#925F36" d="M574.65,1128.78c0.01,0.06,0.01,0.13,0.01,0.19c0,0.81-0.57,1.46-1.28,1.46s-1.28-0.66-1.28-1.46
		s0.57-1.46,1.28-1.46c0.16,0,0.32,0.04,0.46,0.1l2.49-1.67c0.3,0.37,0.62,0.73,0.97,1.07L574.65,1128.78z"/>
	<path fill="#1D1D1B" d="M573.38,1130.68c-0.85,0-1.54-0.77-1.54-1.71s0.69-1.71,1.54-1.71c0.14,0,0.28,0.02,0.42,0.06l2.58-1.73
		l0.15,0.19c0.27,0.34,0.58,0.68,0.95,1.04l0.21,0.21l-2.77,1.87c0,0.02,0,0.04,0,0.07
		C574.92,1129.91,574.23,1130.68,573.38,1130.68z M573.38,1127.76c-0.56,0-1.02,0.54-1.02,1.21c0,0.67,0.46,1.21,1.02,1.21
		c0.56,0,1.02-0.54,1.02-1.21c0-0.06,0-0.12-0.01-0.17l-0.01-0.14l2.52-1.7c-0.23-0.23-0.43-0.46-0.62-0.69l-2.41,1.62l-0.13-0.06
		C573.62,1127.78,573.5,1127.76,573.38,1127.76z"/>
</g>
</svg>
