<?xml version="1.0" encoding="utf-8"?>
<!-- Generator: Adobe Illustrator 25.1.0, SVG Export Plug-In . SVG Version: 6.00 Build 0)  -->
<svg version="1.1" id="Capa_1" xmlns="http://www.w3.org/2000/svg" xmlns:xlink="http://www.w3.org/1999/xlink" x="0px" y="0px" viewBox="770 210 600 435" style="enable-background:new 0 0 1920 1080;" xml:space="preserve">
  <style type="text/css">
    .st0 {
      fill: #999999;
    }
  </style>
  <g>
    <path class="st0" d="M1043.13,637.29c-21.75,0-42.09-8.58-57.28-24.16l-0.31-0.32l-0.35,0.26c-13.95,10.53-30.6,16.1-48.13,16.1
		c-44.04,0-79.88-35.77-79.99-79.78c1.11,0.09,2.27,0.17,3.54,0.23l1.24,0.06l-0.85-0.9c-1.38-1.46-2.7-2.97-3.91-4.5l-0.82-1.03
		l-0.08,1.31c-0.07,1.24-0.11,2.49-0.13,3.73c-19.55-1.94-37.64-11-50.99-25.55c-13.55-14.78-21.02-33.97-21.02-54.04
		c0-18.4,6.4-36.37,18.03-50.6l0.3-0.36l-0.34-0.32c-16.19-15.09-25.47-36.42-25.47-58.53c0-44.1,35.88-79.99,79.99-79.99
		c7.19,0,14.31,0.95,21.17,2.83l0.45,0.12l0.15-0.44c11.18-32.11,41.55-53.68,75.56-53.68c21.11,0,41.02,8.15,56.06,22.94l0.39,0.38
		l0.35-0.42c15.27-18.52,37.78-29.14,61.75-29.14c16.29,0,31.97,4.87,45.33,14.07l0.24,0.17l0.26-0.13
		c10.86-5.23,22.51-7.87,34.66-7.87c24.29,0,46.99,10.85,62.27,29.78l0.25,0.31l0.36-0.17c10.98-5.36,22.78-8.08,35.08-8.08
		c44.11,0,79.99,35.88,79.99,79.99c0,4.35-0.35,8.7-1.04,12.92l-0.05,0.32l0.27,0.18c22.78,14.84,36.38,39.91,36.38,67.07
		c0,24.29-10.85,46.99-29.78,62.27l-0.31,0.25l0.17,0.36c5.36,10.98,8.08,22.78,8.08,35.08c0,44.11-35.88,79.99-79.99,79.99
		c-6.98,0-13.92-0.9-20.6-2.68l-0.41-0.11l-0.17,0.39c-12.87,28.75-41.54,47.32-73.03,47.32c-23.86,0-46.3-10.54-61.57-28.92
		l-0.41-0.5l-0.38,0.52C1093.05,624.85,1068.78,637.29,1043.13,637.29z" />
    <g>
      <path d="M1072.46,222c16.19,0,31.77,4.84,45.05,13.99l0.48,0.33l0.52-0.25c10.79-5.19,22.37-7.82,34.44-7.82
			c24.14,0,46.7,10.79,61.88,29.6l0.5,0.62l0.72-0.35c10.91-5.33,22.64-8.03,34.86-8.03c43.83,0,79.49,35.66,79.49,79.49
			c0,4.33-0.35,8.65-1.04,12.84l-0.11,0.64l0.55,0.36c22.64,14.75,36.16,39.66,36.16,66.65c0,24.14-10.79,46.7-29.6,61.88l-0.62,0.5
			l0.35,0.72c5.33,10.91,8.03,22.64,8.03,34.86c0,43.83-35.66,79.49-79.49,79.49c-6.94,0-13.83-0.9-20.47-2.66l-0.82-0.22
			l-0.35,0.78c-12.79,28.57-41.28,47.03-72.57,47.03c-23.71,0-46.01-10.47-61.18-28.74l-0.83-0.99l-0.76,1.05
			c-14.92,20.7-39.04,33.05-64.52,33.05c-21.61,0-41.83-8.53-56.92-24.01l-0.62-0.63l-0.7,0.53c-13.87,10.46-30.41,16-47.83,16
			c-43.58,0-79.08-35.25-79.48-78.74c0.96,0.07,1.95,0.14,3.02,0.18l2.48,0.11l-1.71-1.8c-1.38-1.45-2.68-2.95-3.88-4.46l-1.63-2.06
			l-0.15,2.62c-0.06,1.06-0.1,2.13-0.12,3.21c-19.22-2.04-36.99-11.01-50.13-25.34c-13.47-14.69-20.89-33.76-20.89-53.7
			c0-18.29,6.36-36.14,17.92-50.28l0.59-0.73l-0.69-0.64c-16.09-14.99-25.31-36.19-25.31-58.17c0-43.83,35.66-79.49,79.49-79.49
			c7.14,0,14.22,0.95,21.04,2.82l0.9,0.25l0.31-0.88c11.11-31.91,41.29-53.34,75.09-53.34c20.97,0,40.76,8.09,55.71,22.79l0.78,0.76
			l0.69-0.84C1026.27,232.55,1048.64,222,1072.46,222 M1072.46,221c-25.02,0-47.37,11.42-62.13,29.32
			c-14.53-14.28-34.44-23.08-56.42-23.08c-35.18,0-65.08,22.57-76.03,54.01c-6.78-1.86-13.93-2.85-21.3-2.85
			c-44.45,0-80.49,36.04-80.49,80.49c0,23.25,9.86,44.21,25.63,58.9c-11.34,13.88-18.14,31.6-18.14,50.91
			c0,41.92,32.06,76.37,73,80.14c0.01-1.43,0.05-2.85,0.13-4.26c1.24,1.57,2.56,3.08,3.94,4.53c-1.37-0.06-2.72-0.15-4.07-0.27v0.34
			c0,44.45,36.04,80.49,80.49,80.49c18.18,0,34.95-6.03,48.43-16.2c14.62,14.99,35.04,24.31,57.64,24.31
			c26.9,0,50.72-13.2,65.33-33.47c14.76,17.78,37.04,29.1,61.95,29.1c32.74,0,60.92-19.55,73.49-47.62
			c6.61,1.76,13.56,2.7,20.73,2.7c44.45,0,80.49-36.04,80.49-80.49c0-12.66-2.93-24.64-8.13-35.3
			c18.28-14.76,29.97-37.34,29.97-62.66c0-28.26-14.57-53.13-36.61-67.48c0.69-4.23,1.05-8.57,1.05-13
			c0-44.45-36.04-80.49-80.49-80.49c-12.66,0-24.64,2.93-35.3,8.13c-14.76-18.27-37.34-29.97-62.66-29.97
			c-12.49,0-24.32,2.85-34.87,7.92C1105.11,226.23,1089.39,221,1072.46,221L1072.46,221z" />
    </g>
  </g>

</svg>