<?xml version="1.0" encoding="utf-8"?>
<!-- Generator: Adobe Illustrator 25.1.0, SVG Export Plug-In . SVG Version: 6.00 Build 0)  -->
<svg version="1.1" id="Capa_1" xmlns="http://www.w3.org/2000/svg" xmlns:xlink="http://www.w3.org/1999/xlink" x="0px" y="0px"
	 viewBox="510 215 860 520" style="enable-background:new 0 0 1920 1080;" xml:space="preserve">
<style type="text/css">
	.st0{fill:#999999;}
</style>
<g>
	<path class="st0" d="M1043.13,637.29c-21.75,0-42.09-8.58-57.28-24.16l-0.31-0.32l-0.35,0.26c-13.95,10.53-30.6,16.1-48.13,16.1
		c-44.04,0-79.88-35.77-79.99-79.78c1.11,0.09,2.27,0.17,3.54,0.23l1.24,0.06l-0.85-0.9c-1.38-1.46-2.7-2.97-3.91-4.5l-0.82-1.03
		l-0.08,1.31c-0.07,1.24-0.11,2.49-0.13,3.73c-19.55-1.94-37.64-11-50.99-25.55c-13.55-14.78-21.02-33.97-21.02-54.04
		c0-18.4,6.4-36.37,18.03-50.6l0.3-0.36l-0.34-0.32c-16.19-15.09-25.47-36.42-25.47-58.53c0-44.1,35.88-79.99,79.99-79.99
		c7.19,0,14.31,0.95,21.17,2.83l0.45,0.12l0.15-0.44c11.18-32.11,41.55-53.68,75.56-53.68c21.11,0,41.02,8.15,56.06,22.94l0.39,0.38
		l0.35-0.42c15.27-18.52,37.78-29.14,61.75-29.14c16.29,0,31.97,4.87,45.33,14.07l0.24,0.17l0.26-0.13
		c10.86-5.23,22.51-7.87,34.66-7.87c24.29,0,46.99,10.85,62.27,29.78l0.25,0.31l0.36-0.17c10.98-5.36,22.78-8.08,35.08-8.08
		c44.11,0,79.99,35.88,79.99,79.99c0,4.35-0.35,8.7-1.04,12.92l-0.05,0.32l0.27,0.18c22.78,14.84,36.38,39.91,36.38,67.07
		c0,24.29-10.85,46.99-29.78,62.27l-0.31,0.25l0.17,0.36c5.36,10.98,8.08,22.78,8.08,35.08c0,44.11-35.88,79.99-79.99,79.99
		c-6.98,0-13.92-0.9-20.6-2.68l-0.41-0.11l-0.17,0.39c-12.87,28.75-41.54,47.32-73.03,47.32c-23.86,0-46.3-10.54-61.57-28.92
		l-0.41-0.5l-0.38,0.52C1093.05,624.85,1068.78,637.29,1043.13,637.29z"/>
	<g>
		<path d="M1072.46,222c16.19,0,31.77,4.84,45.05,13.99l0.48,0.33l0.52-0.25c10.79-5.19,22.37-7.82,34.44-7.82
			c24.14,0,46.7,10.79,61.88,29.6l0.5,0.62l0.72-0.35c10.91-5.33,22.64-8.03,34.86-8.03c43.83,0,79.49,35.66,79.49,79.49
			c0,4.33-0.35,8.65-1.04,12.84l-0.11,0.64l0.55,0.36c22.64,14.75,36.16,39.66,36.16,66.65c0,24.14-10.79,46.7-29.6,61.88l-0.62,0.5
			l0.35,0.72c5.33,10.91,8.03,22.64,8.03,34.86c0,43.83-35.66,79.49-79.49,79.49c-6.94,0-13.83-0.9-20.47-2.66l-0.82-0.22
			l-0.35,0.78c-12.79,28.57-41.28,47.03-72.57,47.03c-23.71,0-46.01-10.47-61.18-28.74l-0.83-0.99l-0.76,1.05
			c-14.92,20.7-39.04,33.05-64.52,33.05c-21.61,0-41.83-8.53-56.92-24.01l-0.62-0.63l-0.7,0.53c-13.87,10.46-30.41,16-47.83,16
			c-43.58,0-79.08-35.25-79.48-78.74c0.96,0.07,1.95,0.14,3.02,0.18l2.48,0.11l-1.71-1.8c-1.38-1.45-2.68-2.95-3.88-4.46l-1.63-2.06
			l-0.15,2.62c-0.06,1.06-0.1,2.13-0.12,3.21c-19.22-2.04-36.99-11.01-50.13-25.34c-13.47-14.69-20.89-33.76-20.89-53.7
			c0-18.29,6.36-36.14,17.92-50.28l0.59-0.73l-0.69-0.64c-16.09-14.99-25.31-36.19-25.31-58.17c0-43.83,35.66-79.49,79.49-79.49
			c7.14,0,14.22,0.95,21.04,2.82l0.9,0.25l0.31-0.88c11.11-31.91,41.29-53.34,75.09-53.34c20.97,0,40.76,8.09,55.71,22.79l0.78,0.76
			l0.69-0.84C1026.27,232.55,1048.64,222,1072.46,222 M1072.46,221c-25.02,0-47.37,11.42-62.13,29.32
			c-14.53-14.28-34.44-23.08-56.42-23.08c-35.18,0-65.08,22.57-76.03,54.01c-6.78-1.86-13.93-2.85-21.3-2.85
			c-44.45,0-80.49,36.04-80.49,80.49c0,23.25,9.86,44.21,25.63,58.9c-11.34,13.88-18.14,31.6-18.14,50.91
			c0,41.92,32.06,76.37,73,80.14c0.01-1.43,0.05-2.85,0.13-4.26c1.24,1.57,2.56,3.08,3.94,4.53c-1.37-0.06-2.72-0.15-4.07-0.27v0.34
			c0,44.45,36.04,80.49,80.49,80.49c18.18,0,34.95-6.03,48.43-16.2c14.62,14.99,35.04,24.31,57.64,24.31
			c26.9,0,50.72-13.2,65.33-33.47c14.76,17.78,37.04,29.1,61.95,29.1c32.74,0,60.92-19.55,73.49-47.62
			c6.61,1.76,13.56,2.7,20.73,2.7c44.45,0,80.49-36.04,80.49-80.49c0-12.66-2.93-24.64-8.13-35.3
			c18.28-14.76,29.97-37.34,29.97-62.66c0-28.26-14.57-53.13-36.61-67.48c0.69-4.23,1.05-8.57,1.05-13
			c0-44.45-36.04-80.49-80.49-80.49c-12.66,0-24.64,2.93-35.3,8.13c-14.76-18.27-37.34-29.97-62.66-29.97
			c-12.49,0-24.32,2.85-34.87,7.92C1105.11,226.23,1089.39,221,1072.46,221L1072.46,221z"/>
	</g>
</g>
<g>
	<path class="st0" d="M559.6,731.5c-3.6,0-6.96-1.42-9.48-4l-0.31-0.32l-0.35,0.26c-2.31,1.74-5.06,2.66-7.96,2.66
		c-7.14,0-12.97-5.68-13.23-12.76c0.05,0,1.4,0.07,1.4,0.07l-0.85-0.9c-0.23-0.24-0.44-0.48-0.64-0.74l-0.82-1.03
		c0,0-0.08,1.45-0.08,1.51c-6.58-0.87-11.47-6.42-11.47-13.12c0-3.05,1.06-6.02,2.98-8.37l0.3-0.36l-0.34-0.32
		c-2.68-2.5-4.21-6.03-4.21-9.69c0-7.3,5.94-13.24,13.24-13.24c1.19,0,2.37,0.16,3.5,0.47l0.45,0.12l0.15-0.44
		c1.85-5.31,6.87-8.88,12.5-8.88c3.49,0,6.79,1.35,9.28,3.79l0.39,0.38l0.35-0.42c2.53-3.06,6.25-4.82,10.22-4.82
		c2.7,0,5.29,0.81,7.5,2.33l0.24,0.16l0.26-0.13c1.79-0.86,3.72-1.3,5.73-1.3c4.02,0,7.78,1.8,10.3,4.93l0.25,0.31l0.36-0.17
		c1.82-0.89,3.77-1.34,5.8-1.34c7.3,0,13.24,5.94,13.24,13.24c0,0.72-0.06,1.44-0.17,2.14l-0.05,0.32l0.27,0.18
		c3.77,2.46,6.02,6.6,6.02,11.1c0,4.02-1.8,7.78-4.93,10.31l-0.31,0.25l0.17,0.36c0.89,1.82,1.34,3.77,1.34,5.8
		c0,7.3-5.94,13.24-13.24,13.24c-1.16,0-2.31-0.15-3.41-0.44l-0.41-0.11l-0.17,0.39c-2.13,4.76-6.87,7.83-12.08,7.83
		c-3.95,0-7.66-1.74-10.19-4.79l-0.41-0.5l-0.38,0.52C567.86,729.44,563.85,731.5,559.6,731.5z"/>
	<path d="M564.61,661.87c2.59,0,5.09,0.77,7.22,2.24l0.48,0.33l0.52-0.25c1.73-0.83,3.58-1.25,5.52-1.25c3.87,0,7.48,1.73,9.92,4.74
		l0.5,0.62l0.72-0.35c1.75-0.85,3.63-1.29,5.58-1.29c7.02,0,12.74,5.71,12.74,12.74c0,0.69-0.06,1.39-0.17,2.06l-0.11,0.64
		l0.55,0.36c3.63,2.36,5.79,6.35,5.79,10.68c0,3.87-1.73,7.48-4.74,9.92l-0.62,0.5l0.35,0.72c0.85,1.75,1.29,3.63,1.29,5.58
		c0,7.02-5.71,12.74-12.74,12.74c-1.11,0-2.22-0.14-3.28-0.43l-0.82-0.22l-0.35,0.78c-2.05,4.58-6.61,7.54-11.63,7.54
		c-3.8,0-7.37-1.68-9.8-4.61l-0.83-0.99l-0.76,1.05c-2.39,3.32-6.26,5.3-10.34,5.3c-3.46,0-6.7-1.37-9.12-3.85l-0.62-0.63l-0.7,0.53
		c-2.22,1.68-4.87,2.56-7.66,2.56c-6.68,0-12.18-5.18-12.7-11.73l2.09,0.1l-1.71-1.8c-0.22-0.23-0.42-0.47-0.61-0.71l-1.63-2.06
		l-0.13,2.27c-6.06-1.06-10.5-6.28-10.5-12.54c0-2.93,1.02-5.79,2.87-8.06l0.59-0.73l-0.69-0.64c-2.58-2.4-4.06-5.8-4.06-9.32
		c0-7.02,5.71-12.74,12.74-12.74c1.15,0,2.28,0.15,3.37,0.45l0.9,0.25l0.31-0.88c1.78-5.11,6.62-8.55,12.03-8.55
		c3.36,0,6.53,1.3,8.93,3.65l0.78,0.76l0.69-0.84C557.21,663.56,560.79,661.87,564.61,661.87 M564.61,660.87
		c-4.27,0-8.08,1.95-10.6,5c-2.48-2.44-5.88-3.94-9.63-3.94c-6,0-11.11,3.85-12.98,9.22c-1.16-0.32-2.38-0.49-3.64-0.49
		c-7.59,0-13.74,6.15-13.74,13.74c0,3.97,1.68,7.54,4.37,10.05c-1.94,2.37-3.1,5.39-3.1,8.69c0,7.15,5.47,13.03,12.46,13.68
		c0-0.24,0.01-0.49,0.02-0.73c0.21,0.27,0.44,0.52,0.67,0.77c-0.23-0.01-0.46-0.03-0.69-0.05v0.06c0,7.59,6.15,13.74,13.74,13.74
		c3.1,0,5.96-1.03,8.26-2.76c2.49,2.56,5.98,4.15,9.84,4.15c4.59,0,8.66-2.25,11.15-5.71c2.52,3.03,6.32,4.97,10.57,4.97
		c5.59,0,10.4-3.34,12.54-8.13c1.13,0.3,2.31,0.46,3.54,0.46c7.59,0,13.74-6.15,13.74-13.74c0-2.16-0.5-4.2-1.39-6.02
		c3.12-2.52,5.11-6.37,5.11-10.69c0-4.82-2.49-9.07-6.25-11.52c0.12-0.72,0.18-1.46,0.18-2.22c0-7.59-6.15-13.74-13.74-13.74
		c-2.16,0-4.2,0.5-6.02,1.39c-2.52-3.12-6.37-5.11-10.69-5.11c-2.13,0-4.15,0.49-5.95,1.35
		C570.18,661.76,567.5,660.87,564.61,660.87L564.61,660.87z"/>
</g>
<g>
	<path class="st0" d="M711.39,702.8c-7.4,0-14.32-2.92-19.49-8.22l-0.31-0.32l-0.35,0.26c-4.75,3.58-10.41,5.48-16.37,5.48
		c-14.86,0-26.98-11.98-27.21-26.79c0.29,0.02,0.58,0.04,0.87,0.05l1.24,0.06l-0.85-0.9c-0.47-0.5-0.92-1.01-1.33-1.53l-0.82-1.03
		l-0.07,1.31c-0.02,0.31-0.03,0.63-0.04,0.94c-13.8-1.54-24.14-13.07-24.14-27.04c0-6.26,2.18-12.38,6.13-17.21l0.3-0.36l-0.34-0.32
		c-5.51-5.13-8.67-12.39-8.67-19.91c0-15.01,12.21-27.21,27.21-27.21c2.44,0,4.87,0.32,7.2,0.96l0.45,0.12l0.15-0.44
		c3.8-10.92,14.13-18.26,25.71-18.26c7.18,0,13.96,2.77,19.08,7.8l0.39,0.38l0.35-0.42c5.19-6.3,12.85-9.91,21.01-9.91
		c5.54,0,10.88,1.66,15.42,4.79l0.24,0.16l0.26-0.13c3.69-1.78,7.66-2.68,11.79-2.68c8.27,0,15.99,3.69,21.19,10.13l0.25,0.31
		l0.36-0.17c3.74-1.82,7.75-2.75,11.93-2.75c15.01,0,27.21,12.21,27.21,27.21c0,1.48-0.12,2.96-0.35,4.4l-0.05,0.32l0.27,0.18
		c7.75,5.05,12.38,13.58,12.38,22.82c0,8.26-3.69,15.99-10.13,21.19l-0.31,0.25l0.17,0.36c1.82,3.73,2.75,7.75,2.75,11.93
		c0,15.01-12.21,27.21-27.21,27.21c-2.38,0-4.73-0.31-7.01-0.91l-0.41-0.11l-0.17,0.39c-4.38,9.78-14.13,16.1-24.85,16.1
		c-8.12,0-15.75-3.59-20.95-9.84l-0.41-0.5l-0.38,0.52C728.37,698.57,720.11,702.8,711.39,702.8z"/>
	<g>
		<path d="M721.48,560.79c5.44,0,10.68,1.63,15.14,4.7l0.48,0.33l0.52-0.25c3.62-1.74,7.52-2.63,11.57-2.63
			c8.11,0,15.69,3.63,20.8,9.95l0.5,0.62l0.72-0.35c3.67-1.79,7.61-2.7,11.71-2.7c14.73,0,26.71,11.98,26.71,26.71
			c0,1.45-0.12,2.91-0.35,4.32l-0.11,0.64l0.55,0.36c7.61,4.96,12.15,13.33,12.15,22.4c0,8.11-3.63,15.69-9.95,20.8l-0.62,0.5
			l0.35,0.72c1.79,3.67,2.7,7.61,2.7,11.71c0,14.73-11.98,26.71-26.71,26.71c-2.33,0-4.65-0.3-6.88-0.89l-0.82-0.22l-0.35,0.78
			c-4.3,9.6-13.87,15.81-24.39,15.81c-7.97,0-15.46-3.52-20.56-9.66l-0.83-0.99l-0.76,1.05c-5.01,6.96-13.12,11.11-21.68,11.11
			c-7.26,0-14.06-2.87-19.13-8.07l-0.62-0.63l-0.7,0.53c-4.66,3.52-10.22,5.38-16.07,5.38c-14.41,0-26.19-11.47-26.7-25.76
			c0.11,0.01,0.22,0.01,0.34,0.02l2.48,0.11l-1.71-1.8c-0.46-0.49-0.9-0.99-1.3-1.49l-1.63-2.06l-0.15,2.62
			c-0.01,0.14-0.01,0.27-0.02,0.41c-6.19-0.82-11.89-3.79-16.14-8.43c-4.53-4.94-7.02-11.35-7.02-18.05c0-6.15,2.14-12.15,6.02-16.9
			l0.59-0.73l-0.69-0.64c-5.41-5.04-8.51-12.16-8.51-19.55c0-14.73,11.98-26.71,26.71-26.71c2.4,0,4.78,0.32,7.07,0.95l0.9,0.25
			l0.31-0.88c3.73-10.72,13.88-17.93,25.24-17.93c7.05,0,13.7,2.72,18.72,7.66l0.78,0.76l0.69-0.84
			C705.96,564.34,713.48,560.79,721.48,560.79 M721.48,559.79c-8.61,0-16.31,3.93-21.39,10.1c-5-4.92-11.86-7.95-19.43-7.95
			c-12.11,0-22.41,7.77-26.18,18.6c-2.34-0.64-4.8-0.98-7.33-0.98c-15.3,0-27.71,12.41-27.71,27.71c0,8.01,3.4,15.22,8.83,20.28
			c-3.91,4.78-6.25,10.88-6.25,17.53c0,14.43,11.04,26.3,25.14,27.6c0-0.49,0.02-0.98,0.05-1.47c0.43,0.54,0.88,1.06,1.36,1.56
			c-0.47-0.02-0.94-0.05-1.4-0.09v0.12c0,15.3,12.41,27.71,27.71,27.71c6.26,0,12.04-2.08,16.68-5.58
			c5.03,5.16,12.07,8.37,19.85,8.37c9.26,0,17.46-4.54,22.5-11.52c5.08,6.12,12.75,10.02,21.33,10.02c11.27,0,20.98-6.73,25.3-16.4
			c2.28,0.61,4.67,0.93,7.14,0.93c15.3,0,27.71-12.41,27.71-27.71c0-4.36-1.01-8.48-2.8-12.15c6.29-5.08,10.32-12.86,10.32-21.58
			c0-9.73-5.02-18.29-12.61-23.24c0.24-1.46,0.36-2.95,0.36-4.48c0-15.3-12.41-27.71-27.71-27.71c-4.36,0-8.48,1.01-12.15,2.8
			c-5.08-6.29-12.86-10.32-21.58-10.32c-4.3,0-8.37,0.98-12.01,2.73C732.73,561.59,727.31,559.79,721.48,559.79L721.48,559.79z"/>
	</g>
</g>
</svg>